<svg xmlns="http://www.w3.org/2000/svg" xmlns:xlink="http://www.w3.org/1999/xlink" width="500" zoomAndPan="magnify" viewBox="0 0 375 374.999991" height="500" preserveAspectRatio="xMidYMid meet" version="1.0"><defs><g/><clipPath id="8969df8a4a"><path d="M 186 128.34375 L 191 128.34375 L 191 135 L 186 135 Z M 186 128.34375 " clip-rule="nonzero"/></clipPath><clipPath id="caed74281b"><path d="M 192 128.34375 L 197 128.34375 L 197 135 L 192 135 Z M 192 128.34375 " clip-rule="nonzero"/></clipPath><clipPath id="37ce7e68ed"><path d="M 175 128.34375 L 181 128.34375 L 181 133 L 175 133 Z M 175 128.34375 " clip-rule="nonzero"/></clipPath><clipPath id="b8600e3ac7"><path d="M 112.558594 202.058594 L 263.195312 202.058594 L 263.195312 204.617188 L 112.558594 204.617188 Z M 112.558594 202.058594 " clip-rule="nonzero"/></clipPath><clipPath id="93b18e82ad"><path d="M 112.558594 244.246094 L 263.195312 244.246094 L 263.195312 246.84375 L 112.558594 246.84375 Z M 112.558594 244.246094 " clip-rule="nonzero"/></clipPath></defs><rect x="-37.5" width="450" fill="#ffffff" y="-37.499999" height="449.999989" fill-opacity="1"/><rect x="-37.5" width="450" fill="#ffffff" y="-37.499999" height="449.999989" fill-opacity="1"/><rect x="-37.5" width="450" fill="#ffffff" y="-37.499999" height="449.999989" fill-opacity="1"/><path fill="#f9f6f2" d="M 184.25 189.683594 C 183.285156 184.589844 179.699219 181.3125 174.757812 180.308594 C 180.4375 180.574219 184.074219 183.949219 184.25 189.683594 Z M 214.40625 179.105469 C 214.769531 179.097656 215.144531 179.121094 215.503906 179.121094 C 216.96875 179.09375 218.164062 179.109375 219.546875 179.65625 C 220.980469 180.253906 221.839844 181.355469 222.566406 182.675781 C 221.746094 181.589844 220.699219 180.617188 219.324219 180.3125 C 218.03125 180.054688 216.910156 180.238281 215.625 180.457031 C 210.125 181.683594 206.449219 180.984375 202.421875 181.195312 C 197.023438 181.476562 193.003906 184.953125 192.726562 190.484375 C 192.519531 194.492188 193.28125 200.742188 195.46875 204.390625 L 185.492188 204.390625 C 185.648438 202.609375 186.078125 200.808594 186.082031 198.640625 C 185.960938 194.710938 184.972656 191.167969 184.980469 187.507812 C 184.796875 191.140625 185.597656 194.785156 185.582031 198.640625 C 185.503906 200.964844 184.996094 202.574219 184.742188 204.390625 L 182.886719 204.390625 C 184.402344 201.410156 184.703125 197.609375 184.445312 194.082031 C 184.3125 197.777344 183.988281 201.160156 182.019531 204.390625 L 180.015625 204.390625 C 182.195312 200.71875 182.964844 194.589844 182.757812 190.507812 C 182.476562 184.976562 178.457031 181.496094 173.0625 181.214844 C 169.03125 181.007812 165.355469 181.707031 159.855469 180.476562 C 158.570312 180.257812 157.449219 180.074219 156.15625 180.332031 C 154.785156 180.640625 153.738281 181.613281 152.914062 182.695312 C 153.644531 181.375 154.5 180.273438 155.933594 179.679688 C 157.640625 179.003906 159.351562 179.140625 161.140625 179.140625 C 161.917969 179.480469 163.042969 179.839844 164.003906 179.738281 C 162.039062 179.605469 160.964844 178.347656 159.640625 177.273438 C 158.660156 176.480469 157.714844 175.691406 156.730469 175.007812 C 155.980469 174.496094 155.234375 174.03125 154.347656 173.8125 C 153.804688 173.707031 153.382812 173.734375 152.847656 173.835938 C 151.632812 174.085938 150.363281 175.015625 149.640625 176.039062 C 149.039062 176.953125 149.054688 178.296875 147.792969 179.273438 C 146.828125 179.960938 145.757812 180.289062 144.621094 180.589844 C 144.203125 180.679688 142.359375 181.710938 142.082031 182.140625 C 142.316406 181.636719 144.0625 180.421875 144.511719 180.234375 C 145.503906 179.871094 146.511719 179.453125 147.261719 178.683594 C 148.171875 177.738281 147.9375 176.898438 148.441406 175.65625 C 148.027344 175.859375 147.609375 176.058594 147.1875 176.242188 C 145.1875 177.113281 143.019531 177.671875 140.972656 176.625 C 139.152344 175.695312 138.699219 174.269531 136.765625 173.199219 C 138.839844 174.09375 139.207031 175.445312 141.148438 176.242188 C 143.109375 177.050781 145.007812 176.363281 146.785156 175.421875 C 148.542969 174.492188 150.632812 173 152.507812 172.472656 C 154.488281 171.917969 155.960938 172.5 157.683594 173.511719 C 159.722656 174.707031 161.753906 176.394531 163.804688 177.449219 C 164.636719 177.871094 165.417969 178.207031 166.363281 178.261719 C 170.554688 178.382812 172.488281 177.722656 176.972656 178.265625 C 177.960938 178.425781 179.167969 178.722656 179.96875 179.394531 C 180.363281 179.710938 180.878906 180.199219 181.074219 180.675781 C 181.019531 180.242188 180.429688 179.515625 180.132812 179.207031 C 178.109375 177.144531 173.792969 177.210938 171.15625 175.9375 C 169.496094 174.96875 167.09375 174.78125 164.542969 173.214844 C 163.089844 172.222656 162.464844 171.480469 161.519531 170.050781 C 160.933594 169.1875 160.625 168.710938 159.632812 168.285156 C 158.015625 167.621094 155.855469 167.703125 154.117188 167.902344 C 152.734375 168.082031 151.339844 168.289062 149.953125 168.40625 C 148.570312 168.535156 147.25 168.605469 145.894531 168.25 C 145.039062 168.011719 144.546875 167.730469 143.914062 167.117188 C 142.402344 165.519531 142.242188 164.988281 139.945312 164.214844 C 142.308594 164.882812 142.484375 165.382812 144.15625 166.851562 C 144.769531 167.363281 145.226562 167.578125 146.011719 167.746094 C 147.296875 167.945312 148.570312 167.800781 149.847656 167.613281 C 151.824219 167.292969 153.785156 166.738281 155.847656 166.542969 C 154.472656 165.226562 153.96875 163.09375 153.75 161.253906 C 153.511719 158.878906 153.800781 156.679688 153.546875 154.378906 C 153.375 153.21875 153.113281 152.414062 152.464844 151.429688 C 151.613281 150.207031 150.664062 149.519531 149.367188 148.808594 C 151.929688 149.972656 153.574219 151.441406 154.21875 154.25 C 154.894531 157.203125 154.460938 161.320312 156.160156 164.125 C 156.5 164.679688 156.8125 165.058594 157.371094 165.394531 C 158.398438 165.988281 159.589844 165.914062 160.710938 166.34375 C 159.496094 163.78125 159.515625 161.664062 161.148438 159.253906 C 161.523438 158.714844 161.609375 158.222656 161.613281 157.578125 C 161.597656 155.492188 160.207031 153.070312 159.628906 150.914062 C 159.410156 150.105469 159.105469 149.132812 159.3125 148.296875 C 159.503906 147.660156 159.976562 146.8125 160.242188 146.101562 C 160.054688 146.722656 159.628906 147.753906 159.542969 148.339844 C 159.484375 149.078125 159.867188 150.074219 160.101562 150.769531 C 160.671875 152.191406 161.488281 153.558594 162.105469 155.007812 C 162.449219 155.855469 162.691406 156.582031 162.808594 157.492188 C 162.894531 158.445312 162.808594 159.15625 162.34375 160.003906 C 161.820312 160.953125 161.539062 161.738281 161.605469 162.828125 C 161.683594 163.683594 161.925781 164.277344 162.328125 165.027344 C 163.457031 167.058594 164.265625 169.742188 166.039062 170.769531 C 168.441406 171.976562 170.382812 171.898438 172.691406 172.757812 C 174.6875 173.421875 177.238281 173.363281 179.742188 174.132812 C 181.839844 174.820312 183.453125 176.011719 184.664062 177.765625 C 184.542969 178.675781 184.511719 179.722656 184.664062 180.5 C 184.640625 177.964844 186.542969 175.648438 186.175781 173.8125 C 186.003906 172.949219 185.054688 172.316406 184.320312 171.949219 C 181.882812 170.78125 178.902344 169.851562 176.730469 168.414062 C 176.148438 167.996094 175.445312 167.179688 174.964844 166.933594 C 174.011719 166.472656 173.082031 166.117188 172.066406 165.824219 C 171.042969 165.585938 170.125 165.3125 169.273438 164.671875 C 168.691406 164.234375 168.246094 163.617188 168.203125 162.878906 C 168.121094 161.421875 169.226562 160.148438 169.125 159.320312 C 169.003906 158.3125 167.570312 157.011719 167.007812 155.335938 C 166.734375 154.457031 166.683594 153.796875 166.796875 152.882812 C 166.832031 154.5625 167.46875 155.582031 168.574219 156.789062 C 169.4375 157.722656 170.527344 158.679688 170.308594 160.082031 C 170.195312 160.738281 169.765625 162.066406 169.914062 162.636719 C 170.097656 163.257812 171.953125 163.4375 172.449219 163.492188 C 172.800781 163.523438 173.148438 163.570312 173.492188 163.625 C 173.164062 162.480469 172.996094 161.335938 172.84375 160.078125 C 172.660156 158.285156 172.609375 156.730469 172.867188 155.066406 C 173.46875 148.371094 171.136719 149.390625 170.421875 144.324219 C 170.28125 143.351562 170.359375 143.148438 169.648438 142.328125 C 167.769531 140.234375 163.800781 139.617188 164.121094 137.308594 C 164.121094 138.058594 164.542969 138.527344 165.167969 138.90625 C 166.621094 139.789062 168.964844 140.210938 170.523438 141.585938 C 170.855469 139.789062 171.613281 138.167969 172.558594 136.492188 C 173.050781 135.621094 173.558594 134.820312 174.152344 134.015625 L 174.878906 133.054688 C 174.230469 134.125 173.492188 135.609375 173.03125 136.71875 C 172.007812 139.269531 171.152344 142.078125 172.175781 144.761719 C 173.066406 147.105469 174.367188 147.792969 175.207031 149.703125 L 175.480469 149.402344 C 177.691406 147.265625 179.910156 146.554688 182.738281 145.558594 C 185.316406 144.644531 187.414062 143.910156 189.273438 141.804688 C 190.28125 140.542969 190.710938 139.421875 191.023438 137.847656 C 191.441406 135.570312 191.296875 133.613281 190.960938 131.332031 C 191.46875 133.617188 191.765625 135.585938 191.589844 137.929688 C 191.378906 139.660156 191.007812 140.90625 190.050781 142.375 C 188.207031 144.863281 186.101562 145.839844 183.363281 147.085938 C 181.050781 148.125 178.921875 148.988281 177.234375 150.949219 C 176.582031 151.796875 176.230469 152.542969 175.984375 153.480469 C 175.46875 155.414062 175.71875 157.753906 176.058594 159.605469 C 176.316406 160.984375 176.628906 162.359375 177.339844 163.585938 C 177.769531 164.304688 178.132812 164.675781 178.859375 165.09375 C 179.976562 165.652344 181.570312 166.152344 183.148438 166.652344 C 183.511719 166.863281 183.980469 167.132812 184.726562 167.835938 C 184.675781 167.648438 183.65625 166.464844 183.378906 166.210938 C 183.9375 163.71875 185.90625 161.710938 187.589844 159.886719 C 188.984375 158.378906 190.136719 157.117188 190.914062 155.175781 C 191.289062 154.125 191.398438 153.3125 191.316406 152.203125 C 191.203125 150.757812 190.8125 149.683594 190.15625 148.394531 C 191.785156 150.546875 192.78125 152.773438 192.371094 155.519531 C 191.957031 157.890625 191.039062 159.492188 189.816406 161.523438 C 188.902344 163.03125 186.953125 165.769531 187.683594 167.621094 C 187.953125 168.246094 188.335938 168.707031 188.800781 169.195312 C 188.941406 169.308594 189.082031 169.429688 189.226562 169.554688 C 190.894531 171.121094 192 173.636719 190.722656 175.75 C 190.1875 176.578125 189.914062 176.90625 189.820312 177.9375 C 190.015625 176.9375 190.335938 176.660156 190.972656 175.933594 C 191.492188 175.332031 191.734375 174.824219 191.847656 174.199219 C 192.410156 173.789062 192.960938 173.351562 193.511719 172.875 C 195.03125 171.5 196.050781 170.289062 196.640625 168.292969 C 197.296875 165.785156 196.144531 163.511719 196.105469 161.007812 C 196.101562 159.828125 196.257812 158.976562 196.703125 157.890625 C 197.175781 156.695312 197.660156 155.765625 197.746094 154.753906 C 197.859375 152.695312 196.609375 149.984375 196.390625 147.691406 C 196.273438 146.171875 196.425781 145.113281 197.039062 143.710938 C 196.734375 145.132812 196.808594 146.132812 197.25 147.507812 C 197.976562 149.691406 199.433594 151.488281 200.070312 153.835938 L 200.378906 153.589844 C 201.769531 152.554688 203.1875 151.703125 204.625 150.753906 C 207.460938 148.796875 208.292969 146.289062 208.367188 142.984375 C 208.40625 141.339844 208.175781 138.785156 208.585938 137.261719 C 208.726562 136.761719 208.882812 136.394531 209.210938 135.988281 C 208.675781 136.867188 208.660156 137.933594 208.742188 138.929688 C 208.863281 140.273438 209.097656 141.601562 209.230469 142.949219 C 209.378906 144.652344 209.371094 145.945312 208.9375 147.613281 C 208.339844 149.648438 207.4375 150.914062 205.851562 152.316406 C 204.03125 153.902344 200.800781 156.15625 199.910156 158.410156 C 199.578125 159.242188 199.433594 159.765625 199.578125 160.765625 C 199.816406 162.386719 200.761719 164.171875 201.015625 166.324219 C 201.324219 166.058594 201.625 165.757812 201.933594 165.40625 C 203.472656 163.570312 204.117188 161.070312 205.285156 159.121094 C 205.964844 158.015625 206.570312 157.320312 207.679688 156.628906 C 206.78125 157.496094 206.375 158.261719 205.984375 159.429688 C 205.640625 160.546875 205.449219 161.667969 205.210938 162.8125 C 204.90625 164.242188 204.609375 165.332031 203.957031 166.660156 C 203.101562 168.332031 202.179688 169.367188 200.683594 170.511719 C 200.46875 171.339844 200.1875 172.089844 199.839844 172.804688 C 199.210938 173.136719 198.542969 173.355469 197.871094 173.617188 C 197.457031 173.78125 197.097656 173.9375 196.726562 174.1875 C 196.402344 174.417969 196.1875 174.632812 196.039062 175.007812 C 196.230469 174.667969 196.460938 174.488281 196.800781 174.308594 C 197.1875 174.125 197.558594 174.015625 197.96875 173.910156 C 199.472656 173.546875 201.5 173.214844 202.871094 172.757812 C 205.183594 171.898438 207.128906 171.976562 209.527344 170.769531 C 211.300781 169.742188 212.109375 167.058594 213.234375 165.027344 C 213.636719 164.277344 213.878906 163.683594 213.960938 162.828125 C 214.023438 161.738281 213.746094 160.953125 213.222656 160.003906 C 212.757812 159.15625 212.667969 158.445312 212.753906 157.492188 C 212.871094 156.582031 213.113281 155.855469 213.457031 155.007812 C 214.078125 153.558594 214.890625 152.191406 215.460938 150.769531 C 215.695312 150.074219 216.078125 149.078125 216.019531 148.339844 C 215.9375 147.753906 215.511719 146.722656 215.324219 146.101562 C 215.589844 146.8125 216.058594 147.660156 216.25 148.296875 C 216.6875 149.878906 214.855469 153.75 214.359375 155.335938 C 214.132812 156.097656 213.96875 156.773438 213.953125 157.578125 C 213.953125 158.222656 214.042969 158.714844 214.417969 159.253906 C 216.050781 161.664062 216.070312 163.78125 214.855469 166.34375 C 216.59375 165.671875 218.148438 166.199219 219.40625 164.125 C 221.105469 161.320312 220.667969 157.203125 221.347656 154.25 C 221.992188 151.441406 223.636719 149.972656 226.199219 148.808594 C 224.902344 149.519531 223.953125 150.207031 223.097656 151.429688 C 222.449219 152.414062 222.1875 153.21875 222.015625 154.378906 C 221.761719 156.679688 222.054688 158.878906 221.8125 161.253906 C 221.597656 163.09375 221.09375 165.226562 219.71875 166.542969 C 221.78125 166.738281 223.738281 167.292969 225.71875 167.613281 C 226.996094 167.800781 228.265625 167.945312 229.554688 167.746094 C 230.339844 167.578125 230.792969 167.363281 231.410156 166.851562 C 233.078125 165.382812 233.257812 164.882812 235.621094 164.214844 C 233.324219 164.988281 233.164062 165.519531 231.652344 167.117188 C 231.019531 167.730469 230.527344 168.011719 229.667969 168.25 C 228.316406 168.605469 226.996094 168.535156 225.613281 168.40625 C 224.226562 168.289062 222.832031 168.082031 221.449219 167.902344 C 219.710938 167.703125 217.546875 167.621094 215.929688 168.285156 C 214.941406 168.710938 214.632812 169.1875 214.046875 170.050781 C 213.101562 171.480469 212.472656 172.222656 211.023438 173.214844 C 206.917969 175.734375 201.925781 176.289062 197.515625 177.992188 C 196.921875 178.203125 196.375 178.515625 195.796875 178.945312 C 195.425781 179.222656 195.117188 179.496094 194.816406 179.84375 C 194.679688 179.992188 194.457031 180.246094 194.40625 180.445312 C 194.464844 180.316406 194.773438 179.980469 194.878906 179.902344 C 195.21875 179.613281 195.546875 179.382812 195.933594 179.148438 C 199.457031 177.242188 205.214844 178.375 209.199219 178.261719 C 211.011719 178.183594 213.332031 176.5625 214.785156 175.558594 C 216.488281 174.386719 218.914062 172.558594 220.976562 172.289062 C 222.375 172.109375 223.78125 172.636719 225.003906 173.269531 C 227.320312 174.46875 229.929688 176.535156 232.519531 176.605469 C 234.054688 176.644531 235.335938 175.914062 236.421875 174.882812 C 237.179688 174.160156 237.832031 173.617188 238.796875 173.199219 C 236.867188 174.269531 236.414062 175.695312 234.59375 176.625 C 232.546875 177.671875 230.375 177.113281 228.378906 176.242188 C 227.953125 176.058594 227.539062 175.859375 227.125 175.65625 C 227.628906 176.898438 227.390625 177.738281 228.300781 178.683594 C 229.050781 179.453125 230.0625 179.871094 231.054688 180.234375 C 231.503906 180.421875 233.246094 181.636719 233.480469 182.140625 C 233.207031 181.710938 231.363281 180.679688 230.945312 180.589844 C 229.804688 180.289062 228.738281 179.960938 227.769531 179.273438 C 226.511719 178.296875 226.527344 176.953125 225.925781 176.039062 C 225.199219 175.015625 223.933594 174.085938 222.71875 173.835938 C 222.183594 173.734375 221.757812 173.707031 221.21875 173.8125 C 219.585938 174.171875 217.332031 176.144531 216.019531 177.207031 C 214.746094 178.234375 213.597656 179.320312 211.8125 178.929688 C 211.828125 178.925781 212.417969 179.3125 214.40625 179.105469 Z M 187.167969 194.421875 C 186.117188 190.792969 186.832031 188.324219 184.972656 184.65625 C 184.570312 183.921875 184.113281 183.179688 183.53125 182.574219 C 187.777344 186.21875 186.460938 190.332031 187.167969 194.421875 Z M 182.117188 180.707031 C 181.273438 177.425781 175.808594 176.273438 173.457031 175.589844 C 175.878906 175.769531 182.132812 176.929688 182.117188 180.707031 Z M 185.757812 180.644531 C 185.929688 178.042969 186.476562 177.277344 186.929688 175.074219 C 187.320312 172.871094 186.429688 171.601562 184.191406 170.546875 C 186.175781 171.074219 187.984375 172.355469 187.777344 174.609375 C 187.625 176.324219 186.246094 177.847656 185.757812 180.644531 " fill-opacity="1" fill-rule="evenodd"/><path fill="#f9f6f2" d="M 135.183594 183.316406 C 134.972656 181.890625 135.296875 180.378906 136.210938 179.117188 C 137.125 177.855469 138.460938 177.078125 139.886719 176.832031 C 140.101562 178.257812 139.777344 179.769531 138.863281 181.03125 C 137.949219 182.292969 136.613281 183.070312 135.183594 183.316406 " fill-opacity="1" fill-rule="evenodd"/><path fill="#f9f6f2" d="M 147.339844 186.941406 C 146.394531 186.246094 145.710938 185.195312 145.511719 183.953125 C 145.308594 182.707031 145.628906 181.496094 146.304688 180.539062 C 147.246094 181.234375 147.929688 182.285156 148.132812 183.53125 C 148.332031 184.777344 148.015625 185.984375 147.339844 186.941406 " fill-opacity="1" fill-rule="evenodd"/><path fill="#f9f6f2" d="M 145.894531 178.757812 C 145.28125 179.308594 144.460938 179.628906 143.566406 179.59375 C 142.679688 179.554688 141.882812 179.167969 141.316406 178.566406 C 141.933594 178.015625 142.753906 177.695312 143.648438 177.730469 C 144.535156 177.769531 145.332031 178.15625 145.894531 178.757812 " fill-opacity="1" fill-rule="evenodd"/><path fill="#f9f6f2" d="M 140.527344 170.640625 C 140.035156 171.53125 139.878906 172.605469 140.175781 173.664062 C 140.46875 174.722656 141.160156 175.5625 142.042969 176.074219 C 142.535156 175.183594 142.691406 174.105469 142.398438 173.046875 C 142.101562 171.988281 141.410156 171.148438 140.527344 170.640625 " fill-opacity="1" fill-rule="evenodd"/><path fill="#f9f6f2" d="M 138.074219 174.667969 C 137.558594 175.847656 136.597656 176.835938 135.304688 177.359375 C 134.015625 177.882812 132.632812 177.84375 131.4375 177.355469 C 131.953125 176.175781 132.914062 175.1875 134.207031 174.664062 C 135.496094 174.140625 136.878906 174.179688 138.074219 174.667969 " fill-opacity="1" fill-rule="evenodd"/><path fill="#f9f6f2" d="M 136.796875 172.695312 C 137.109375 171.621094 137.015625 170.429688 136.441406 169.363281 C 135.867188 168.304688 134.921875 167.570312 133.851562 167.234375 C 133.539062 168.308594 133.632812 169.5 134.207031 170.5625 C 134.78125 171.625 135.726562 172.359375 136.796875 172.695312 " fill-opacity="1" fill-rule="evenodd"/><path fill="#f9f6f2" d="M 141.800781 182.550781 C 141.011719 182.800781 140.320312 183.34375 139.902344 184.128906 C 139.484375 184.914062 139.417969 185.792969 139.652344 186.582031 C 140.441406 186.332031 141.132812 185.789062 141.550781 185.003906 C 141.96875 184.21875 142.03125 183.339844 141.800781 182.550781 " fill-opacity="1" fill-rule="evenodd"/><path fill="#f9f6f2" d="M 172.917969 142.402344 C 174.074219 142.648438 175.324219 142.464844 176.402344 141.785156 C 177.480469 141.105469 178.183594 140.0625 178.460938 138.914062 C 177.304688 138.667969 176.054688 138.855469 174.976562 139.535156 C 173.898438 140.210938 173.191406 141.257812 172.917969 142.402344 " fill-opacity="1" fill-rule="evenodd"/><path fill="#f9f6f2" d="M 171.390625 136.996094 C 171.808594 136.050781 171.875 134.949219 171.484375 133.90625 C 171.09375 132.859375 170.320312 132.066406 169.382812 131.625 C 168.960938 132.570312 168.894531 133.675781 169.285156 134.71875 C 169.675781 135.765625 170.449219 136.554688 171.390625 136.996094 " fill-opacity="1" fill-rule="evenodd"/><path fill="#f9f6f2" d="M 165.140625 138.222656 C 164.59375 137.34375 164.375 136.261719 164.617188 135.171875 C 164.859375 134.082031 165.511719 133.191406 166.382812 132.625 C 166.929688 133.503906 167.148438 134.585938 166.90625 135.675781 C 166.664062 136.765625 166.007812 137.65625 165.140625 138.222656 " fill-opacity="1" fill-rule="evenodd"/><path fill="#f9f6f2" d="M 186.699219 149.898438 C 186.394531 151.011719 186.503906 152.238281 187.109375 153.328125 C 187.714844 154.414062 188.699219 155.160156 189.808594 155.488281 C 190.117188 154.378906 190.003906 153.148438 189.398438 152.0625 C 188.792969 150.976562 187.804688 150.230469 186.699219 149.898438 " fill-opacity="1" fill-rule="evenodd"/><path fill="#f9f6f2" d="M 184.640625 154.296875 C 184.015625 155.269531 183.753906 156.472656 184.003906 157.691406 C 184.257812 158.910156 184.972656 159.914062 185.929688 160.558594 C 186.554688 159.589844 186.816406 158.386719 186.566406 157.167969 C 186.316406 155.949219 185.597656 154.945312 184.640625 154.296875 " fill-opacity="1" fill-rule="evenodd"/><path fill="#f9f6f2" d="M 194.089844 146.464844 C 194.535156 147.253906 194.683594 148.210938 194.429688 149.152344 C 194.175781 150.09375 193.566406 150.847656 192.785156 151.308594 C 192.339844 150.519531 192.191406 149.5625 192.445312 148.621094 C 192.703125 147.679688 193.308594 146.925781 194.089844 146.464844 " fill-opacity="1" fill-rule="evenodd"/><path fill="#f9f6f2" d="M 196.589844 154.019531 C 196.644531 155.171875 196.269531 156.34375 195.445312 157.277344 C 194.617188 158.207031 193.492188 158.722656 192.339844 158.804688 C 192.28125 157.652344 192.65625 156.476562 193.484375 155.546875 C 194.3125 154.617188 195.4375 154.101562 196.589844 154.019531 " fill-opacity="1" fill-rule="evenodd"/><path fill="#f9f6f2" d="M 188.683594 141.027344 C 187.28125 140.496094 186.078125 139.433594 185.402344 137.96875 C 184.722656 136.5 184.699219 134.902344 185.203125 133.492188 C 186.605469 134.027344 187.808594 135.085938 188.484375 136.554688 C 189.160156 138.019531 189.1875 139.617188 188.683594 141.027344 " fill-opacity="1" fill-rule="evenodd"/><path fill="#f9f6f2" d="M 192.648438 138.933594 C 194.109375 139.277344 195.703125 139.074219 197.089844 138.242188 C 198.480469 137.40625 199.402344 136.097656 199.78125 134.652344 C 198.316406 134.304688 196.726562 134.507812 195.339844 135.34375 C 193.949219 136.175781 193.027344 137.484375 192.648438 138.933594 " fill-opacity="1" fill-rule="evenodd"/><path fill="#f9f6f2" d="M 160.84375 157.816406 C 159.675781 157.917969 158.476562 157.578125 157.5 156.777344 C 156.527344 155.976562 155.964844 154.863281 155.839844 153.703125 C 157.007812 153.605469 158.210938 153.941406 159.183594 154.742188 C 160.160156 155.542969 160.71875 156.65625 160.84375 157.816406 " fill-opacity="1" fill-rule="evenodd"/><path fill="#f9f6f2" d="M 159.226562 151.699219 C 158.078125 151.90625 156.847656 151.6875 155.800781 150.984375 C 154.75 150.28125 154.085938 149.222656 153.851562 148.082031 C 155 147.871094 156.230469 148.09375 157.277344 148.796875 C 158.324219 149.5 158.992188 150.554688 159.226562 151.699219 " fill-opacity="1" fill-rule="evenodd"/><path fill="#f9f6f2" d="M 161.785156 152.890625 C 162.832031 152.375 163.6875 151.464844 164.109375 150.28125 C 164.53125 149.09375 164.433594 147.851562 163.941406 146.792969 C 162.894531 147.308594 162.035156 148.214844 161.613281 149.402344 C 161.195312 150.589844 161.289062 151.832031 161.785156 152.890625 " fill-opacity="1" fill-rule="evenodd"/><path fill="#f9f6f2" d="M 160.878906 146.464844 C 162.007812 146.160156 163.027344 145.4375 163.667969 144.355469 C 164.3125 143.273438 164.460938 142.035156 164.183594 140.902344 C 163.054688 141.203125 162.039062 141.929688 161.394531 143.011719 C 160.75 144.09375 160.597656 145.332031 160.878906 146.464844 " fill-opacity="1" fill-rule="evenodd"/><path fill="#f9f6f2" d="M 158.621094 146.992188 C 157.359375 146.835938 156.152344 146.210938 155.296875 145.144531 C 154.441406 144.074219 154.089844 142.765625 154.21875 141.503906 C 155.476562 141.660156 156.683594 142.285156 157.539062 143.355469 C 158.398438 144.421875 158.746094 145.730469 158.621094 146.992188 " fill-opacity="1" fill-rule="evenodd"/><path fill="#f9f6f2" d="M 159.597656 143.53125 C 158.652344 142.5 158.09375 141.117188 158.140625 139.609375 C 158.191406 138.105469 158.835938 136.757812 159.847656 135.792969 C 160.792969 136.824219 161.355469 138.207031 161.308594 139.710938 C 161.257812 141.21875 160.609375 142.5625 159.597656 143.53125 " fill-opacity="1" fill-rule="evenodd"/><path fill="#f9f6f2" d="M 154.125 168.535156 C 154.027344 169.351562 153.617188 170.132812 152.921875 170.6875 C 152.226562 171.242188 151.371094 171.46875 150.546875 171.386719 C 150.648438 170.566406 151.058594 169.789062 151.753906 169.234375 C 152.449219 168.675781 153.304688 168.449219 154.125 168.535156 " fill-opacity="1" fill-rule="evenodd"/><path fill="#f9f6f2" d="M 149.449219 169.132812 C 149.351562 169.949219 148.941406 170.730469 148.246094 171.285156 C 147.550781 171.839844 146.695312 172.066406 145.871094 171.984375 C 145.972656 171.167969 146.382812 170.386719 147.078125 169.832031 C 147.773438 169.273438 148.628906 169.050781 149.449219 169.132812 " fill-opacity="1" fill-rule="evenodd"/><path fill="#f9f6f2" d="M 152.515625 166.421875 C 152.414062 165.605469 152.007812 164.824219 151.3125 164.269531 C 150.613281 163.714844 149.757812 163.492188 148.9375 163.574219 C 149.039062 164.390625 149.445312 165.171875 150.144531 165.722656 C 150.839844 166.277344 151.695312 166.503906 152.515625 166.421875 " fill-opacity="1" fill-rule="evenodd"/><path fill="#f9f6f2" d="M 146.394531 167.007812 C 146.996094 166.019531 147.226562 164.808594 146.945312 163.59375 C 146.660156 162.378906 145.917969 161.390625 144.941406 160.769531 C 144.339844 161.753906 144.109375 162.96875 144.390625 164.179688 C 144.671875 165.398438 145.417969 166.386719 146.394531 167.007812 " fill-opacity="1" fill-rule="evenodd"/><path fill="#f9f6f2" d="M 145.433594 168.742188 C 144.785156 168.234375 143.941406 167.96875 143.054688 168.066406 C 142.171875 168.167969 141.40625 168.609375 140.882812 169.246094 C 141.53125 169.753906 142.375 170.015625 143.261719 169.917969 C 144.148438 169.820312 144.914062 169.378906 145.433594 168.742188 " fill-opacity="1" fill-rule="evenodd"/><path fill="#f9f6f2" d="M 139.726562 155.878906 C 139.027344 157.109375 138.789062 158.601562 139.183594 160.078125 C 139.574219 161.554688 140.523438 162.734375 141.742188 163.460938 C 142.441406 162.230469 142.675781 160.734375 142.285156 159.257812 C 141.894531 157.785156 140.949219 156.601562 139.726562 155.878906 " fill-opacity="1" fill-rule="evenodd"/><path fill="#f9f6f2" d="M 137.003906 166.871094 C 137.589844 166.167969 138.445312 165.679688 139.429688 165.578125 C 140.417969 165.472656 141.355469 165.769531 142.078125 166.34375 C 141.492188 167.046875 140.636719 167.535156 139.648438 167.636719 C 138.660156 167.738281 137.722656 167.441406 137.003906 166.871094 " fill-opacity="1" fill-rule="evenodd"/><path fill="#f9f6f2" d="M 135.335938 162.820312 C 135.746094 163.570312 136.441406 164.167969 137.324219 164.4375 C 138.210938 164.707031 139.121094 164.597656 139.882812 164.207031 C 139.472656 163.457031 138.777344 162.859375 137.894531 162.589844 C 137.007812 162.320312 136.097656 162.425781 135.335938 162.820312 " fill-opacity="1" fill-rule="evenodd"/><path fill="#f9f6f2" d="M 147.675781 159.441406 C 148.035156 160.429688 148.765625 161.285156 149.792969 161.78125 C 150.816406 162.277344 151.941406 162.3125 152.941406 161.980469 C 152.582031 160.988281 151.851562 160.136719 150.828125 159.640625 C 149.804688 159.148438 148.675781 159.109375 147.675781 159.441406 " fill-opacity="1" fill-rule="evenodd"/><path fill="#f9f6f2" d="M 146.449219 153.671875 C 146.949219 154.902344 147.914062 155.941406 149.226562 156.515625 C 150.546875 157.085938 151.96875 157.082031 153.210938 156.613281 C 152.710938 155.382812 151.75 154.335938 150.429688 153.765625 C 149.113281 153.195312 147.695312 153.199219 146.449219 153.671875 " fill-opacity="1" fill-rule="evenodd"/><path fill="#f9f6f2" d="M 151.25 142.140625 C 152.164062 143.027344 152.746094 144.253906 152.78125 145.625 C 152.816406 146.996094 152.296875 148.253906 151.429688 149.183594 C 150.515625 148.300781 149.933594 147.070312 149.898438 145.699219 C 149.863281 144.328125 150.382812 143.070312 151.25 142.140625 " fill-opacity="1" fill-rule="evenodd"/><path fill="#f9f6f2" d="M 144.136719 150.207031 C 144.972656 149.492188 146.074219 149.085938 147.257812 149.164062 C 148.441406 149.238281 149.484375 149.777344 150.222656 150.589844 C 149.390625 151.308594 148.285156 151.710938 147.101562 151.632812 C 145.917969 151.558594 144.871094 151.019531 144.136719 150.207031 " fill-opacity="1" fill-rule="evenodd"/><path fill="#f9f6f2" d="M 156.898438 163.265625 C 156.5625 162.511719 156.515625 161.632812 156.832031 160.800781 C 157.148438 159.96875 157.769531 159.339844 158.515625 158.996094 C 158.847656 159.75 158.894531 160.628906 158.582031 161.460938 C 158.265625 162.289062 157.644531 162.917969 156.898438 163.265625 " fill-opacity="1" fill-rule="evenodd"/><path fill="#f9f6f2" d="M 154.28125 186.644531 C 155.070312 186.0625 155.640625 185.1875 155.808594 184.148438 C 155.972656 183.109375 155.710938 182.097656 155.144531 181.300781 C 154.359375 181.878906 153.789062 182.753906 153.621094 183.796875 C 153.449219 184.835938 153.714844 185.847656 154.28125 186.644531 " fill-opacity="1" fill-rule="evenodd"/><path fill="#f9f6f2" d="M 157.449219 183.882812 C 157.160156 183.351562 157.078125 182.710938 157.257812 182.089844 C 157.4375 181.464844 157.855469 180.972656 158.382812 180.671875 C 158.667969 181.203125 158.753906 181.84375 158.570312 182.46875 C 158.386719 183.089844 157.972656 183.585938 157.449219 183.882812 " fill-opacity="1" fill-rule="evenodd"/><path fill="#f9f6f2" d="M 149.179688 181.101562 C 149.679688 180.429688 150.4375 179.941406 151.335938 179.796875 C 152.230469 179.652344 153.101562 179.878906 153.789062 180.363281 C 153.289062 181.039062 152.535156 181.523438 151.636719 181.671875 C 150.738281 181.8125 149.867188 181.585938 149.179688 181.101562 " fill-opacity="1" fill-rule="evenodd"/><path fill="#f9f6f2" d="M 152.898438 177.652344 C 153.539062 177.367188 154.289062 177.320312 155 177.582031 C 155.707031 177.84375 156.25 178.359375 156.550781 178.992188 C 155.910156 179.28125 155.160156 179.324219 154.449219 179.0625 C 153.738281 178.800781 153.199219 178.28125 152.898438 177.652344 " fill-opacity="1" fill-rule="evenodd"/><path fill="#f9f6f2" d="M 150.703125 178.078125 C 150.390625 177.527344 150.289062 176.859375 150.46875 176.203125 C 150.644531 175.546875 151.070312 175.019531 151.617188 174.699219 C 151.925781 175.253906 152.03125 175.917969 151.851562 176.574219 C 151.671875 177.234375 151.246094 177.757812 150.703125 178.078125 " fill-opacity="1" fill-rule="evenodd"/><path fill="#f9f6f2" d="M 174.648438 167.617188 C 173.777344 167.171875 172.734375 167.050781 171.726562 167.359375 C 170.714844 167.671875 169.921875 168.355469 169.457031 169.214844 C 170.328125 169.660156 171.367188 169.78125 172.378906 169.46875 C 173.390625 169.160156 174.179688 168.476562 174.648438 167.617188 " fill-opacity="1" fill-rule="evenodd"/><path fill="#f9f6f2" d="M 165.085938 159.515625 C 164.242188 159.785156 163.503906 160.371094 163.054688 161.210938 C 162.609375 162.050781 162.542969 162.988281 162.796875 163.835938 C 163.636719 163.5625 164.378906 162.980469 164.824219 162.140625 C 165.269531 161.300781 165.335938 160.359375 165.085938 159.515625 " fill-opacity="1" fill-rule="evenodd"/><path fill="#f9f6f2" d="M 166.550781 164.484375 C 165.808594 165.035156 165.269531 165.859375 165.109375 166.84375 C 164.949219 167.824219 165.199219 168.777344 165.730469 169.53125 C 166.476562 168.984375 167.015625 168.15625 167.175781 167.175781 C 167.332031 166.195312 167.085938 165.238281 166.550781 164.484375 " fill-opacity="1" fill-rule="evenodd"/><path fill="#f9f6f2" d="M 163.199219 153.683594 C 163.3125 154.433594 163.707031 155.136719 164.359375 155.628906 C 165.011719 156.121094 165.800781 156.308594 166.554688 156.210938 C 166.441406 155.464844 166.046875 154.757812 165.394531 154.269531 C 164.738281 153.773438 163.953125 153.589844 163.199219 153.683594 " fill-opacity="1" fill-rule="evenodd"/><path fill="#f9f6f2" d="M 169.660156 150.03125 C 168.875 150.4375 168.242188 151.136719 167.945312 152.039062 C 167.644531 152.941406 167.738281 153.878906 168.128906 154.667969 C 168.914062 154.265625 169.546875 153.5625 169.84375 152.660156 C 170.140625 151.757812 170.050781 150.820312 169.660156 150.03125 " fill-opacity="1" fill-rule="evenodd"/><path fill="#f9f6f2" d="M 171.058594 153.351562 C 170.410156 153.683594 169.894531 154.257812 169.648438 155 C 169.402344 155.742188 169.480469 156.511719 169.800781 157.164062 C 170.445312 156.828125 170.964844 156.253906 171.207031 155.511719 C 171.453125 154.769531 171.378906 154 171.058594 153.351562 " fill-opacity="1" fill-rule="evenodd"/><path fill="#f9f6f2" d="M 164.761719 157.851562 C 165.453125 157.632812 166.230469 157.675781 166.929688 158.027344 C 167.628906 158.378906 168.121094 158.976562 168.355469 159.660156 C 167.664062 159.878906 166.886719 159.839844 166.191406 159.488281 C 165.488281 159.136719 164.996094 158.539062 164.761719 157.851562 " fill-opacity="1" fill-rule="evenodd"/><path fill="#f9f6f2" d="M 166.984375 147.816406 C 166.441406 148.300781 166.078125 148.984375 166.023438 149.761719 C 165.972656 150.542969 166.234375 151.269531 166.703125 151.820312 C 167.246094 151.339844 167.609375 150.65625 167.664062 149.878906 C 167.714844 149.097656 167.453125 148.367188 166.984375 147.816406 " fill-opacity="1" fill-rule="evenodd"/><path fill="#f9f6f2" d="M 170.21875 145.503906 C 169.984375 144.496094 169.371094 143.574219 168.425781 142.976562 C 167.484375 142.375 166.386719 142.207031 165.371094 142.417969 C 165.605469 143.425781 166.222656 144.347656 167.164062 144.945312 C 168.109375 145.546875 169.203125 145.714844 170.21875 145.503906 " fill-opacity="1" fill-rule="evenodd"/><path fill="#f9f6f2" d="M 169.019531 139.882812 C 168.453125 139.449219 168.050781 138.800781 167.941406 138.039062 C 167.832031 137.273438 168.042969 136.542969 168.464844 135.964844 C 169.035156 136.402344 169.4375 137.050781 169.546875 137.8125 C 169.652344 138.574219 169.445312 139.308594 169.019531 139.882812 " fill-opacity="1" fill-rule="evenodd"/><path fill="#f9f6f2" d="M 175.585938 147.667969 C 176.546875 147.367188 177.394531 146.703125 177.910156 145.75 C 178.425781 144.792969 178.507812 143.722656 178.230469 142.757812 C 177.265625 143.058594 176.417969 143.71875 175.902344 144.675781 C 175.386719 145.628906 175.304688 146.699219 175.585938 147.667969 " fill-opacity="1" fill-rule="evenodd"/><path fill="#f9f6f2" d="M 178.21875 169.835938 C 177.535156 169.484375 176.714844 169.390625 175.921875 169.632812 C 175.125 169.878906 174.5 170.417969 174.132812 171.09375 C 174.820312 171.445312 175.636719 171.539062 176.433594 171.296875 C 177.230469 171.050781 177.851562 170.511719 178.21875 169.835938 " fill-opacity="1" fill-rule="evenodd"/><path fill="#f9f6f2" d="M 158.398438 168.355469 C 158.316406 169.039062 157.972656 169.691406 157.390625 170.15625 C 156.808594 170.621094 156.097656 170.808594 155.410156 170.742188 C 155.492188 170.058594 155.835938 169.40625 156.414062 168.941406 C 157 168.476562 157.710938 168.289062 158.398438 168.355469 " fill-opacity="1" fill-rule="evenodd"/><path fill="#f9f6f2" d="M 161.832031 171.039062 C 161.417969 171.714844 160.746094 172.234375 159.917969 172.441406 C 159.085938 172.652344 158.25 172.507812 157.566406 172.109375 C 157.980469 171.4375 158.648438 170.917969 159.480469 170.710938 C 160.308594 170.5 161.144531 170.640625 161.832031 171.039062 " fill-opacity="1" fill-rule="evenodd"/><g clip-path="url(#8969df8a4a)"><path fill="#f9f6f2" d="M 190.246094 134.25 C 189.007812 133.964844 187.882812 133.214844 187.144531 132.066406 C 186.40625 130.914062 186.203125 129.582031 186.460938 128.34375 C 187.695312 128.632812 188.824219 129.378906 189.558594 130.527344 C 190.296875 131.675781 190.503906 133.011719 190.246094 134.25 " fill-opacity="1" fill-rule="evenodd"/></g><g clip-path="url(#caed74281b)"><path fill="#f9f6f2" d="M 192.628906 134.796875 C 193.863281 134.507812 194.992188 133.761719 195.726562 132.613281 C 196.464844 131.464844 196.667969 130.128906 196.410156 128.890625 C 195.175781 129.175781 194.046875 129.925781 193.3125 131.074219 C 192.574219 132.222656 192.367188 133.558594 192.628906 134.796875 " fill-opacity="1" fill-rule="evenodd"/></g><path fill="#f9f6f2" d="M 182.433594 144.808594 C 181.539062 143.914062 180.980469 142.679688 180.96875 141.316406 C 180.957031 139.957031 181.492188 138.714844 182.371094 137.804688 C 183.265625 138.699219 183.824219 139.929688 183.835938 141.292969 C 183.847656 142.660156 183.308594 143.898438 182.433594 144.808594 " fill-opacity="1" fill-rule="evenodd"/><path fill="#f9f6f2" d="M 196.023438 141.855469 C 194.839844 141.40625 193.484375 141.398438 192.230469 141.9375 C 190.972656 142.480469 190.054688 143.472656 189.574219 144.640625 C 190.757812 145.089844 192.113281 145.101562 193.371094 144.558594 C 194.625 144.015625 195.542969 143.027344 196.023438 141.855469 " fill-opacity="1" fill-rule="evenodd"/><path fill="#f9f6f2" d="M 182.90625 150.847656 C 182.4375 151.835938 181.601562 152.648438 180.492188 153.058594 C 179.382812 153.46875 178.21875 153.402344 177.214844 152.957031 C 177.683594 151.972656 178.519531 151.15625 179.628906 150.746094 C 180.738281 150.335938 181.90625 150.40625 182.90625 150.847656 " fill-opacity="1" fill-rule="evenodd"/><path fill="#f9f6f2" d="M 181.65625 155.066406 C 181.652344 156.328125 181.167969 157.589844 180.203125 158.558594 C 179.242188 159.527344 177.980469 160.023438 176.714844 160.042969 C 176.71875 158.777344 177.203125 157.515625 178.167969 156.546875 C 179.128906 155.578125 180.390625 155.085938 181.65625 155.066406 " fill-opacity="1" fill-rule="evenodd"/><path fill="#f9f6f2" d="M 181.785156 159.808594 C 182.230469 160.632812 182.363281 161.628906 182.082031 162.601562 C 181.800781 163.574219 181.15625 164.34375 180.335938 164.804688 C 179.890625 163.976562 179.753906 162.988281 180.039062 162.011719 C 180.320312 161.039062 180.964844 160.273438 181.785156 159.808594 " fill-opacity="1" fill-rule="evenodd"/><path fill="#f9f6f2" d="M 188.621094 148.023438 C 187.9375 148.65625 187.015625 149.035156 186.007812 149.011719 C 185 148.988281 184.097656 148.566406 183.449219 147.898438 C 184.132812 147.265625 185.054688 146.886719 186.058594 146.910156 C 187.066406 146.933594 187.96875 147.359375 188.621094 148.023438 " fill-opacity="1" fill-rule="evenodd"/><g clip-path="url(#37ce7e68ed)"><path fill="#f9f6f2" d="M 180.546875 128.894531 C 180.386719 129.941406 179.832031 130.929688 178.914062 131.617188 C 178 132.304688 176.890625 132.5625 175.839844 132.429688 C 176 131.382812 176.554688 130.394531 177.46875 129.707031 C 178.386719 129.019531 179.492188 128.761719 180.546875 128.894531 " fill-opacity="1" fill-rule="evenodd"/></g><path fill="#f9f6f2" d="M 180.871094 133.921875 C 180.417969 135.207031 179.480469 136.328125 178.15625 136.980469 C 176.835938 137.632812 175.371094 137.695312 174.070312 137.273438 C 174.523438 135.988281 175.460938 134.867188 176.785156 134.214844 C 178.109375 133.5625 179.570312 133.5 180.871094 133.921875 " fill-opacity="1" fill-rule="evenodd"/><path fill="#f9f6f2" d="M 172.945312 134.773438 C 173.511719 134.191406 173.855469 133.402344 173.851562 132.527344 C 173.847656 131.652344 173.496094 130.863281 172.925781 130.289062 C 172.359375 130.867188 172.015625 131.664062 172.015625 132.535156 C 172.019531 133.410156 172.375 134.199219 172.945312 134.773438 " fill-opacity="1" fill-rule="evenodd"/><path fill="#f9f6f2" d="M 192.808594 162.613281 C 193.023438 163.746094 192.8125 164.960938 192.125 165.996094 C 191.433594 167.03125 190.390625 167.695312 189.261719 167.9375 C 189.046875 166.804688 189.253906 165.589844 189.945312 164.554688 C 190.636719 163.519531 191.675781 162.851562 192.808594 162.613281 " fill-opacity="1" fill-rule="evenodd"/><path fill="#f9f6f2" d="M 207.636719 136.535156 C 206.535156 136.144531 205.578125 135.339844 205.023438 134.210938 C 204.46875 133.082031 204.417969 131.835938 204.785156 130.726562 C 205.886719 131.117188 206.84375 131.921875 207.398438 133.050781 C 207.953125 134.179688 208.003906 135.429688 207.636719 136.535156 " fill-opacity="1" fill-rule="evenodd"/><path fill="#f9f6f2" d="M 209.3125 139.328125 C 210.484375 139.304688 211.644531 138.84375 212.53125 137.945312 C 213.414062 137.046875 213.855469 135.882812 213.859375 134.714844 C 212.691406 134.738281 211.527344 135.199219 210.644531 136.097656 C 209.757812 136.996094 209.316406 138.160156 209.3125 139.328125 " fill-opacity="1" fill-rule="evenodd"/><path fill="#f9f6f2" d="M 207.371094 141.585938 C 206.273438 141.363281 205.265625 140.726562 204.589844 139.730469 C 203.914062 138.730469 203.703125 137.558594 203.90625 136.460938 C 205 136.6875 206.011719 137.324219 206.6875 138.320312 C 207.359375 139.316406 207.574219 140.492188 207.371094 141.585938 " fill-opacity="1" fill-rule="evenodd"/><path fill="#f9f6f2" d="M 206.789062 146.644531 C 205.664062 146.414062 204.625 145.761719 203.933594 144.742188 C 203.242188 143.714844 203.023438 142.511719 203.230469 141.386719 C 204.355469 141.617188 205.394531 142.273438 206.085938 143.292969 C 206.777344 144.316406 206.992188 145.519531 206.789062 146.644531 " fill-opacity="1" fill-rule="evenodd"/><path fill="#f9f6f2" d="M 201.84375 151.703125 C 200.84375 150.847656 200.171875 149.617188 200.050781 148.203125 C 199.929688 146.792969 200.386719 145.464844 201.226562 144.453125 C 202.222656 145.308594 202.898438 146.542969 203.019531 147.953125 C 203.136719 149.363281 202.679688 150.691406 201.84375 151.703125 " fill-opacity="1" fill-rule="evenodd"/><path fill="#f9f6f2" d="M 197.890625 144.234375 C 199 143.976562 200.011719 143.300781 200.671875 142.269531 C 201.332031 141.238281 201.519531 140.035156 201.285156 138.925781 C 200.175781 139.183594 199.160156 139.855469 198.503906 140.890625 C 197.839844 141.925781 197.65625 143.121094 197.890625 144.234375 " fill-opacity="1" fill-rule="evenodd"/><path fill="#f9f6f2" d="M 240.566406 183.316406 C 240.78125 181.890625 240.457031 180.378906 239.542969 179.117188 C 238.625 177.855469 237.292969 177.078125 235.863281 176.832031 C 235.648438 178.257812 235.972656 179.769531 236.890625 181.03125 C 237.804688 182.292969 239.140625 183.070312 240.566406 183.316406 " fill-opacity="1" fill-rule="evenodd"/><path fill="#f9f6f2" d="M 228.414062 186.941406 C 229.355469 186.246094 230.039062 185.195312 230.238281 183.953125 C 230.441406 182.707031 230.125 181.496094 229.449219 180.539062 C 228.503906 181.234375 227.820312 182.285156 227.621094 183.53125 C 227.417969 184.777344 227.734375 185.984375 228.414062 186.941406 " fill-opacity="1" fill-rule="evenodd"/><path fill="#f9f6f2" d="M 229.855469 178.757812 C 230.46875 179.308594 231.292969 179.628906 232.183594 179.59375 C 233.074219 179.554688 233.867188 179.167969 234.433594 178.566406 C 233.820312 178.015625 232.996094 177.695312 232.105469 177.730469 C 231.214844 177.769531 230.421875 178.15625 229.855469 178.757812 " fill-opacity="1" fill-rule="evenodd"/><path fill="#f9f6f2" d="M 235.222656 170.640625 C 235.714844 171.53125 235.875 172.605469 235.578125 173.664062 C 235.285156 174.722656 234.589844 175.5625 233.707031 176.074219 C 233.214844 175.183594 233.058594 174.105469 233.355469 173.046875 C 233.652344 171.988281 234.34375 171.148438 235.222656 170.640625 " fill-opacity="1" fill-rule="evenodd"/><path fill="#f9f6f2" d="M 237.675781 174.667969 C 238.191406 175.847656 239.152344 176.835938 240.445312 177.359375 C 241.738281 177.882812 243.117188 177.84375 244.316406 177.355469 C 243.796875 176.175781 242.839844 175.1875 241.546875 174.664062 C 240.253906 174.140625 238.875 174.179688 237.675781 174.667969 " fill-opacity="1" fill-rule="evenodd"/><path fill="#f9f6f2" d="M 238.953125 172.695312 C 238.644531 171.621094 238.734375 170.429688 239.308594 169.363281 C 239.882812 168.304688 240.828125 167.570312 241.902344 167.234375 C 242.210938 168.308594 242.117188 169.5 241.542969 170.5625 C 240.972656 171.625 240.023438 172.359375 238.953125 172.695312 " fill-opacity="1" fill-rule="evenodd"/><path fill="#f9f6f2" d="M 233.949219 182.550781 C 234.738281 182.800781 235.433594 183.34375 235.851562 184.128906 C 236.269531 184.914062 236.332031 185.792969 236.097656 186.582031 C 235.3125 186.332031 234.621094 185.789062 234.199219 185.003906 C 233.78125 184.21875 233.71875 183.339844 233.949219 182.550781 " fill-opacity="1" fill-rule="evenodd"/><path fill="#f9f6f2" d="M 214.90625 157.816406 C 216.074219 157.917969 217.277344 157.578125 218.25 156.777344 C 219.226562 155.976562 219.785156 154.863281 219.910156 153.703125 C 218.746094 153.605469 217.542969 153.941406 216.566406 154.742188 C 215.59375 155.542969 215.03125 156.65625 214.90625 157.816406 " fill-opacity="1" fill-rule="evenodd"/><path fill="#f9f6f2" d="M 216.523438 151.699219 C 217.675781 151.90625 218.90625 151.6875 219.953125 150.984375 C 221 150.28125 221.667969 149.222656 221.902344 148.082031 C 220.75 147.871094 219.519531 148.09375 218.472656 148.796875 C 217.425781 149.5 216.757812 150.554688 216.523438 151.699219 " fill-opacity="1" fill-rule="evenodd"/><path fill="#f9f6f2" d="M 213.96875 152.890625 C 212.917969 152.375 212.0625 151.464844 211.640625 150.28125 C 211.222656 149.09375 211.316406 147.851562 211.808594 146.792969 C 212.859375 147.308594 213.714844 148.214844 214.136719 149.402344 C 214.554688 150.589844 214.460938 151.832031 213.96875 152.890625 " fill-opacity="1" fill-rule="evenodd"/><path fill="#f9f6f2" d="M 214.875 146.464844 C 213.746094 146.160156 212.726562 145.4375 212.082031 144.355469 C 211.4375 143.273438 211.289062 142.035156 211.566406 140.902344 C 212.699219 141.203125 213.714844 141.929688 214.359375 143.011719 C 215.003906 144.09375 215.152344 145.332031 214.875 146.464844 " fill-opacity="1" fill-rule="evenodd"/><path fill="#f9f6f2" d="M 217.132812 146.992188 C 218.394531 146.835938 219.597656 146.210938 220.457031 145.144531 C 221.3125 144.074219 221.660156 142.765625 221.535156 141.503906 C 220.273438 141.660156 219.066406 142.285156 218.210938 143.355469 C 217.355469 144.421875 217.003906 145.730469 217.132812 146.992188 " fill-opacity="1" fill-rule="evenodd"/><path fill="#f9f6f2" d="M 216.152344 143.53125 C 217.097656 142.5 217.65625 141.117188 217.609375 139.609375 C 217.5625 138.105469 216.914062 136.757812 215.902344 135.792969 C 214.957031 136.824219 214.394531 138.207031 214.445312 139.710938 C 214.492188 141.21875 215.140625 142.5625 216.152344 143.53125 " fill-opacity="1" fill-rule="evenodd"/><path fill="#f9f6f2" d="M 221.625 168.535156 C 221.726562 169.351562 222.132812 170.132812 222.832031 170.6875 C 223.527344 171.242188 224.378906 171.46875 225.203125 171.386719 C 225.105469 170.566406 224.695312 169.789062 224 169.234375 C 223.300781 168.675781 222.449219 168.449219 221.625 168.535156 " fill-opacity="1" fill-rule="evenodd"/><path fill="#f9f6f2" d="M 226.300781 169.132812 C 226.402344 169.949219 226.8125 170.730469 227.507812 171.285156 C 228.203125 171.839844 229.058594 172.066406 229.878906 171.984375 C 229.777344 171.167969 229.371094 170.386719 228.671875 169.832031 C 227.976562 169.273438 227.125 169.050781 226.300781 169.132812 " fill-opacity="1" fill-rule="evenodd"/><path fill="#f9f6f2" d="M 223.238281 166.421875 C 223.335938 165.605469 223.746094 164.824219 224.441406 164.269531 C 225.140625 163.714844 225.992188 163.492188 226.8125 163.574219 C 226.714844 164.390625 226.304688 165.171875 225.609375 165.722656 C 224.910156 166.277344 224.058594 166.503906 223.238281 166.421875 " fill-opacity="1" fill-rule="evenodd"/><path fill="#f9f6f2" d="M 229.359375 167.007812 C 228.753906 166.019531 228.523438 164.808594 228.808594 163.59375 C 229.089844 162.378906 229.832031 161.390625 230.808594 160.769531 C 231.414062 161.753906 231.644531 162.96875 231.359375 164.179688 C 231.078125 165.398438 230.335938 166.386719 229.359375 167.007812 " fill-opacity="1" fill-rule="evenodd"/><path fill="#f9f6f2" d="M 230.316406 168.742188 C 230.96875 168.234375 231.808594 167.96875 232.695312 168.066406 C 233.582031 168.167969 234.347656 168.609375 234.871094 169.246094 C 234.21875 169.753906 233.375 170.015625 232.488281 169.917969 C 231.605469 169.820312 230.839844 169.378906 230.316406 168.742188 " fill-opacity="1" fill-rule="evenodd"/><path fill="#f9f6f2" d="M 236.023438 155.878906 C 236.722656 157.109375 236.960938 158.601562 236.570312 160.078125 C 236.175781 161.554688 235.230469 162.734375 234.011719 163.460938 C 233.3125 162.230469 233.074219 160.734375 233.464844 159.257812 C 233.859375 157.785156 234.804688 156.601562 236.023438 155.878906 " fill-opacity="1" fill-rule="evenodd"/><path fill="#f9f6f2" d="M 238.746094 166.871094 C 238.160156 166.167969 237.308594 165.679688 236.320312 165.578125 C 235.335938 165.472656 234.398438 165.769531 233.675781 166.34375 C 234.261719 167.046875 235.117188 167.535156 236.105469 167.636719 C 237.089844 167.738281 238.027344 167.441406 238.746094 166.871094 " fill-opacity="1" fill-rule="evenodd"/><path fill="#f9f6f2" d="M 240.414062 162.820312 C 240.003906 163.570312 239.3125 164.167969 238.425781 164.4375 C 237.542969 164.707031 236.632812 164.597656 235.871094 164.207031 C 236.28125 163.457031 236.972656 162.859375 237.859375 162.589844 C 238.742188 162.320312 239.652344 162.425781 240.414062 162.820312 " fill-opacity="1" fill-rule="evenodd"/><path fill="#f9f6f2" d="M 228.074219 159.441406 C 227.71875 160.429688 226.984375 161.285156 225.960938 161.78125 C 224.9375 162.277344 223.808594 162.3125 222.808594 161.980469 C 223.167969 160.988281 223.898438 160.136719 224.921875 159.640625 C 225.949219 159.148438 227.074219 159.109375 228.074219 159.441406 " fill-opacity="1" fill-rule="evenodd"/><path fill="#f9f6f2" d="M 229.304688 153.671875 C 228.804688 154.902344 227.839844 155.941406 226.523438 156.515625 C 225.207031 157.085938 223.78125 157.082031 222.539062 156.613281 C 223.039062 155.382812 224.003906 154.335938 225.320312 153.765625 C 226.636719 153.195312 228.058594 153.199219 229.304688 153.671875 " fill-opacity="1" fill-rule="evenodd"/><path fill="#f9f6f2" d="M 224.503906 142.140625 C 223.589844 143.027344 223.007812 144.253906 222.972656 145.625 C 222.9375 146.996094 223.453125 148.253906 224.320312 149.183594 C 225.238281 148.300781 225.820312 147.070312 225.855469 145.699219 C 225.890625 144.328125 225.371094 143.070312 224.503906 142.140625 " fill-opacity="1" fill-rule="evenodd"/><path fill="#f9f6f2" d="M 231.613281 150.207031 C 230.78125 149.492188 229.675781 149.085938 228.492188 149.164062 C 227.308594 149.238281 226.265625 149.777344 225.527344 150.589844 C 226.363281 151.308594 227.464844 151.710938 228.652344 151.632812 C 229.835938 151.558594 230.878906 151.019531 231.613281 150.207031 " fill-opacity="1" fill-rule="evenodd"/><path fill="#f9f6f2" d="M 218.855469 163.265625 C 219.1875 162.511719 219.234375 161.632812 218.917969 160.800781 C 218.601562 159.96875 217.984375 159.339844 217.234375 158.996094 C 216.902344 159.75 216.855469 160.628906 217.171875 161.460938 C 217.484375 162.289062 218.105469 162.917969 218.855469 163.265625 " fill-opacity="1" fill-rule="evenodd"/><path fill="#f9f6f2" d="M 221.472656 186.644531 C 220.683594 186.0625 220.113281 185.1875 219.945312 184.148438 C 219.777344 183.109375 220.042969 182.097656 220.605469 181.300781 C 221.394531 181.878906 221.964844 182.753906 222.132812 183.796875 C 222.300781 184.835938 222.035156 185.847656 221.472656 186.644531 " fill-opacity="1" fill-rule="evenodd"/><path fill="#f9f6f2" d="M 218.304688 183.882812 C 218.589844 183.351562 218.675781 182.710938 218.492188 182.089844 C 218.3125 181.464844 217.898438 180.972656 217.371094 180.671875 C 217.085938 181.203125 217 181.84375 217.183594 182.46875 C 217.363281 183.089844 217.777344 183.585938 218.304688 183.882812 " fill-opacity="1" fill-rule="evenodd"/><path fill="#f9f6f2" d="M 226.570312 181.101562 C 226.070312 180.429688 225.316406 179.941406 224.417969 179.796875 C 223.523438 179.652344 222.648438 179.878906 221.960938 180.363281 C 222.464844 181.039062 223.21875 181.523438 224.113281 181.671875 C 225.011719 181.8125 225.882812 181.585938 226.570312 181.101562 " fill-opacity="1" fill-rule="evenodd"/><path fill="#f9f6f2" d="M 222.851562 177.652344 C 222.210938 177.367188 221.460938 177.320312 220.75 177.582031 C 220.042969 177.84375 219.503906 178.359375 219.203125 178.992188 C 219.84375 179.28125 220.589844 179.324219 221.300781 179.0625 C 222.011719 178.800781 222.550781 178.28125 222.851562 177.652344 " fill-opacity="1" fill-rule="evenodd"/><path fill="#f9f6f2" d="M 225.050781 178.078125 C 225.359375 177.527344 225.464844 176.859375 225.285156 176.203125 C 225.105469 175.546875 224.679688 175.019531 224.132812 174.699219 C 223.824219 175.253906 223.722656 175.917969 223.902344 176.574219 C 224.078125 177.234375 224.507812 177.757812 225.050781 178.078125 " fill-opacity="1" fill-rule="evenodd"/><path fill="#f9f6f2" d="M 210.667969 159.515625 C 211.507812 159.785156 212.25 160.371094 212.695312 161.210938 C 213.140625 162.050781 213.207031 162.988281 212.957031 163.835938 C 212.113281 163.5625 211.375 162.980469 210.929688 162.140625 C 210.484375 161.300781 210.414062 160.359375 210.667969 159.515625 " fill-opacity="1" fill-rule="evenodd"/><path fill="#f9f6f2" d="M 208.0625 162.742188 C 208.980469 163.417969 209.644531 164.4375 209.839844 165.648438 C 210.035156 166.859375 209.730469 168.03125 209.074219 168.960938 C 208.15625 168.285156 207.492188 167.265625 207.296875 166.058594 C 207.101562 164.847656 207.40625 163.671875 208.0625 162.742188 " fill-opacity="1" fill-rule="evenodd"/><path fill="#f9f6f2" d="M 212.550781 153.683594 C 212.441406 154.433594 212.046875 155.136719 211.394531 155.628906 C 210.738281 156.121094 209.953125 156.308594 209.199219 156.210938 C 209.308594 155.464844 209.707031 154.757812 210.355469 154.269531 C 211.011719 153.773438 211.800781 153.589844 212.550781 153.683594 " fill-opacity="1" fill-rule="evenodd"/><path fill="#f9f6f2" d="M 210.992188 157.851562 C 210.296875 157.632812 209.523438 157.675781 208.824219 158.027344 C 208.121094 158.378906 207.628906 158.976562 207.394531 159.660156 C 208.089844 159.878906 208.863281 159.839844 209.5625 159.488281 C 210.261719 159.136719 210.753906 158.539062 210.992188 157.851562 " fill-opacity="1" fill-rule="evenodd"/><path fill="#f9f6f2" d="M 217.351562 168.355469 C 217.4375 169.039062 217.777344 169.691406 218.359375 170.15625 C 218.941406 170.621094 219.65625 170.808594 220.34375 170.742188 C 220.261719 170.058594 219.917969 169.40625 219.335938 168.941406 C 218.753906 168.476562 218.039062 168.289062 217.351562 168.355469 " fill-opacity="1" fill-rule="evenodd"/><path fill="#f9f6f2" d="M 213.921875 171.039062 C 214.335938 171.714844 215.003906 172.234375 215.835938 172.441406 C 216.664062 172.652344 217.5 172.507812 218.1875 172.109375 C 217.773438 171.4375 217.101562 170.917969 216.273438 170.710938 C 215.445312 170.5 214.609375 170.640625 213.921875 171.039062 " fill-opacity="1" fill-rule="evenodd"/><path fill="#f9f6f2" d="M 200.863281 161.707031 C 201.765625 161.4375 202.5625 160.828125 203.054688 159.941406 C 203.542969 159.054688 203.632812 158.054688 203.382812 157.152344 C 202.480469 157.421875 201.679688 158.03125 201.1875 158.917969 C 200.699219 159.804688 200.609375 160.800781 200.863281 161.707031 " fill-opacity="1" fill-rule="evenodd"/><path fill="#f9f6f2" d="M 204.117188 154.65625 C 204.859375 155.234375 205.820312 155.53125 206.828125 155.417969 C 207.839844 155.304688 208.707031 154.796875 209.300781 154.066406 C 208.558594 153.492188 207.597656 153.195312 206.585938 153.308594 C 205.578125 153.425781 204.710938 153.929688 204.117188 154.65625 " fill-opacity="1" fill-rule="evenodd"/><path fill="#f9f6f2" d="M 202.503906 170.855469 C 203.421875 170.992188 204.390625 170.789062 205.199219 170.207031 C 206.007812 169.621094 206.507812 168.773438 206.667969 167.863281 C 205.753906 167.726562 204.785156 167.929688 203.976562 168.515625 C 203.164062 169.097656 202.664062 169.949219 202.503906 170.855469 " fill-opacity="1" fill-rule="evenodd"/><g clip-path="url(#b8600e3ac7)"><path fill="#f9f6f2" d="M 187.875 202.199219 C 229.472656 202.199219 263.195312 202.738281 263.195312 203.402344 C 263.195312 204.070312 229.472656 204.609375 187.875 204.609375 C 146.277344 204.609375 112.558594 204.070312 112.558594 203.402344 C 112.558594 202.738281 146.277344 202.199219 187.875 202.199219 " fill-opacity="1" fill-rule="evenodd"/></g><g clip-path="url(#93b18e82ad)"><path fill="#f9f6f2" d="M 187.875 244.445312 C 229.472656 244.445312 263.195312 244.984375 263.195312 245.652344 C 263.195312 246.316406 229.472656 246.855469 187.875 246.855469 C 146.277344 246.855469 112.558594 246.316406 112.558594 245.652344 C 112.558594 244.984375 146.277344 244.445312 187.875 244.445312 " fill-opacity="1" fill-rule="evenodd"/></g><g fill="#f9f6f2" fill-opacity="1"><g transform="translate(56.845662, 228.867993)"><g><path d="M 3.09375 -4.15625 L 2.953125 -3.78125 C 2.710938 -3.175781 2.523438 -2.675781 2.390625 -2.28125 C 2.253906 -1.882812 2.1875 -1.582031 2.1875 -1.375 C 2.1875 -1.1875 2.253906 -1.03125 2.390625 -0.90625 C 2.535156 -0.789062 2.695312 -0.703125 2.875 -0.640625 C 3.050781 -0.585938 3.269531 -0.535156 3.53125 -0.484375 L 3.6875 -0.453125 L 3.6875 0 L -0.015625 0 L -0.015625 -0.40625 C 0.0664062 -0.46875 0.144531 -0.515625 0.21875 -0.546875 C 0.289062 -0.585938 0.382812 -0.632812 0.5 -0.6875 C 0.6875 -0.757812 0.832031 -0.832031 0.9375 -0.90625 C 1.050781 -0.988281 1.15625 -1.113281 1.25 -1.28125 C 1.300781 -1.382812 1.351562 -1.5 1.40625 -1.625 C 1.457031 -1.757812 1.492188 -1.847656 1.515625 -1.890625 L 1.609375 -2.140625 L 4.53125 -9.625 C 4.550781 -9.675781 4.566406 -9.773438 4.578125 -9.921875 C 4.578125 -10.023438 4.582031 -10.109375 4.59375 -10.171875 C 4.613281 -10.234375 4.640625 -10.289062 4.671875 -10.34375 C 4.929688 -10.34375 5.148438 -10.316406 5.328125 -10.265625 C 5.515625 -10.210938 5.703125 -10.117188 5.890625 -9.984375 L 9.484375 -1.375 C 9.546875 -1.21875 9.617188 -1.085938 9.703125 -0.984375 C 9.796875 -0.890625 9.890625 -0.816406 9.984375 -0.765625 C 10.085938 -0.722656 10.222656 -0.664062 10.390625 -0.59375 C 10.523438 -0.550781 10.671875 -0.488281 10.828125 -0.40625 L 10.8125 0 L 6.265625 0 L 6.25 -0.40625 C 6.5 -0.476562 6.707031 -0.550781 6.875 -0.625 C 7.050781 -0.695312 7.207031 -0.796875 7.34375 -0.921875 C 7.488281 -1.054688 7.5625 -1.21875 7.5625 -1.40625 C 7.5625 -1.613281 7.300781 -2.390625 6.78125 -3.734375 C 6.75 -3.804688 6.71875 -3.878906 6.6875 -3.953125 C 6.664062 -4.023438 6.644531 -4.09375 6.625 -4.15625 Z M 4.796875 -8.6875 L 3.359375 -4.84375 L 6.328125 -4.84375 Z M 4.796875 -8.6875 "/></g></g></g><g fill="#f9f6f2" fill-opacity="1"><g transform="translate(67.593037, 228.867993)"><g><path d="M 2.34375 -8.078125 C 2.34375 -8.503906 2.304688 -8.8125 2.234375 -9 C 2.171875 -9.195312 2.070312 -9.328125 1.9375 -9.390625 C 1.8125 -9.460938 1.601562 -9.53125 1.3125 -9.59375 C 0.957031 -9.664062 0.703125 -9.726562 0.546875 -9.78125 L 0.5625 -10.171875 L 5.84375 -10.171875 L 5.84375 -9.765625 C 5.6875 -9.703125 5.546875 -9.65625 5.421875 -9.625 C 5.304688 -9.601562 5.148438 -9.570312 4.953125 -9.53125 C 4.703125 -9.488281 4.515625 -9.4375 4.390625 -9.375 C 4.273438 -9.320312 4.1875 -9.203125 4.125 -9.015625 C 4.0625 -8.828125 4.03125 -8.53125 4.03125 -8.125 L 4.03125 -2.4375 C 4.03125 -1.8125 4.085938 -1.375 4.203125 -1.125 C 4.328125 -0.882812 4.554688 -0.734375 4.890625 -0.671875 C 5.234375 -0.609375 5.859375 -0.578125 6.765625 -0.578125 C 7.335938 -0.578125 7.816406 -0.648438 8.203125 -0.796875 C 8.597656 -0.953125 8.914062 -1.253906 9.15625 -1.703125 L 9.265625 -1.9375 C 9.347656 -2.101562 9.421875 -2.242188 9.484375 -2.359375 C 9.554688 -2.484375 9.640625 -2.59375 9.734375 -2.6875 L 10.203125 -2.671875 L 9.703125 0.09375 C 9.003906 0.03125 8.4375 0 8 0 L 0.546875 0 L 0.53125 -0.421875 C 0.613281 -0.453125 0.78125 -0.503906 1.03125 -0.578125 C 1.332031 -0.648438 1.566406 -0.722656 1.734375 -0.796875 C 1.910156 -0.878906 2.054688 -1.003906 2.171875 -1.171875 C 2.285156 -1.335938 2.34375 -1.570312 2.34375 -1.875 Z M 2.34375 -8.078125 "/></g></g></g><g fill="#f9f6f2" fill-opacity="1"><g transform="translate(77.715564, 228.867993)"><g><path d="M 2.28125 -7.890625 C 2.28125 -8.203125 2.253906 -8.519531 2.203125 -8.84375 C 2.171875 -9 2.09375 -9.125 1.96875 -9.21875 C 1.84375 -9.320312 1.703125 -9.40625 1.546875 -9.46875 C 1.390625 -9.53125 1.1875 -9.59375 0.9375 -9.65625 C 0.75 -9.707031 0.613281 -9.75 0.53125 -9.78125 L 0.546875 -10.171875 L 5.171875 -10.171875 C 6.472656 -10.171875 7.617188 -10 8.609375 -9.65625 C 9.597656 -9.320312 10.378906 -8.78125 10.953125 -8.03125 C 11.523438 -7.289062 11.8125 -6.328125 11.8125 -5.140625 C 11.8125 -4.234375 11.59375 -3.390625 11.15625 -2.609375 C 10.726562 -1.828125 10.085938 -1.195312 9.234375 -0.71875 C 8.378906 -0.238281 7.359375 0 6.171875 0 L 0.546875 0 L 0.53125 -0.40625 L 0.953125 -0.515625 C 1.242188 -0.585938 1.476562 -0.65625 1.65625 -0.71875 C 1.832031 -0.789062 1.976562 -0.90625 2.09375 -1.0625 C 2.21875 -1.21875 2.28125 -1.4375 2.28125 -1.71875 Z M 3.96875 -2.125 C 3.96875 -1.664062 4.050781 -1.304688 4.21875 -1.046875 C 4.394531 -0.785156 4.695312 -0.644531 5.125 -0.625 C 5.414062 -0.613281 5.710938 -0.609375 6.015625 -0.609375 C 6.867188 -0.609375 7.59375 -0.804688 8.1875 -1.203125 C 8.78125 -1.597656 9.222656 -2.113281 9.515625 -2.75 C 9.804688 -3.382812 9.953125 -4.054688 9.953125 -4.765625 C 9.953125 -5.691406 9.785156 -6.515625 9.453125 -7.234375 C 9.117188 -7.960938 8.601562 -8.535156 7.90625 -8.953125 C 7.207031 -9.367188 6.332031 -9.578125 5.28125 -9.578125 L 3.96875 -9.578125 Z M 3.96875 -2.125 "/></g></g></g><g fill="#f9f6f2" fill-opacity="1"><g transform="translate(90.243754, 228.867993)"><g><path d="M 9.71875 0.078125 C 9.632812 0.0859375 9.550781 0.09375 9.46875 0.09375 C 9.363281 0.09375 9.210938 0.078125 9.015625 0.046875 C 8.816406 0.015625 8.664062 0 8.5625 0 L 0.546875 0 L 0.53125 -0.390625 C 0.695312 -0.472656 0.847656 -0.535156 0.984375 -0.578125 C 1.117188 -0.617188 1.269531 -0.648438 1.4375 -0.671875 C 1.644531 -0.710938 1.796875 -0.757812 1.890625 -0.8125 C 1.992188 -0.875 2.070312 -1 2.125 -1.1875 C 2.175781 -1.375 2.203125 -1.675781 2.203125 -2.09375 L 2.203125 -8 C 2.203125 -8.40625 2.164062 -8.703125 2.09375 -8.890625 C 2.03125 -9.085938 1.9375 -9.222656 1.8125 -9.296875 C 1.6875 -9.378906 1.476562 -9.460938 1.1875 -9.546875 C 1.144531 -9.566406 1.054688 -9.597656 0.921875 -9.640625 C 0.785156 -9.679688 0.65625 -9.726562 0.53125 -9.78125 L 0.546875 -10.171875 L 8.515625 -10.171875 C 8.585938 -10.171875 8.664062 -10.175781 8.75 -10.1875 C 8.84375 -10.195312 8.90625 -10.207031 8.9375 -10.21875 C 9.09375 -10.238281 9.234375 -10.25 9.359375 -10.25 C 9.472656 -10.25 9.570312 -10.238281 9.65625 -10.21875 L 9.65625 -7.796875 L 9.25 -7.78125 C 9.15625 -7.863281 9.078125 -7.957031 9.015625 -8.0625 C 8.960938 -8.175781 8.898438 -8.320312 8.828125 -8.5 C 8.722656 -8.757812 8.617188 -8.960938 8.515625 -9.109375 C 8.421875 -9.253906 8.273438 -9.363281 8.078125 -9.4375 C 7.785156 -9.53125 7.421875 -9.585938 6.984375 -9.609375 C 6.554688 -9.640625 6.054688 -9.65625 5.484375 -9.65625 C 4.816406 -9.65625 4.289062 -9.628906 3.90625 -9.578125 C 3.882812 -9.347656 3.875 -9.082031 3.875 -8.78125 L 3.875 -5.609375 L 6.125 -5.609375 C 6.539062 -5.609375 6.847656 -5.640625 7.046875 -5.703125 C 7.253906 -5.765625 7.410156 -5.863281 7.515625 -6 C 7.628906 -6.144531 7.785156 -6.394531 7.984375 -6.75 L 8.109375 -6.96875 L 8.546875 -6.96875 L 8.546875 -3.609375 L 8.109375 -3.59375 C 7.941406 -4.039062 7.726562 -4.390625 7.46875 -4.640625 C 7.207031 -4.890625 6.863281 -5.015625 6.4375 -5.015625 L 3.875 -5.015625 L 3.875 -2.375 C 3.875 -1.832031 3.9375 -1.429688 4.0625 -1.171875 C 4.195312 -0.910156 4.382812 -0.738281 4.625 -0.65625 C 4.863281 -0.582031 5.207031 -0.546875 5.65625 -0.546875 L 6.421875 -0.546875 C 7.078125 -0.546875 7.644531 -0.617188 8.125 -0.765625 C 8.601562 -0.921875 8.957031 -1.226562 9.1875 -1.6875 L 9.296875 -1.921875 C 9.390625 -2.128906 9.460938 -2.28125 9.515625 -2.375 C 9.578125 -2.476562 9.648438 -2.578125 9.734375 -2.671875 L 10.234375 -2.671875 Z M 9.71875 0.078125 "/></g></g></g><g fill="#f9f6f2" fill-opacity="1"><g transform="translate(101.069234, 228.867993)"><g><path d="M 5.4375 -4.234375 C 5.3125 -4.421875 5.203125 -4.554688 5.109375 -4.640625 C 5.023438 -4.734375 4.921875 -4.800781 4.796875 -4.84375 C 4.679688 -4.894531 4.519531 -4.925781 4.3125 -4.9375 L 3.828125 -4.96875 L 3.828125 -1.96875 C 3.828125 -1.59375 3.859375 -1.316406 3.921875 -1.140625 C 3.984375 -0.960938 4.070312 -0.84375 4.1875 -0.78125 C 4.300781 -0.726562 4.46875 -0.679688 4.6875 -0.640625 C 4.851562 -0.617188 5 -0.59375 5.125 -0.5625 C 5.25 -0.53125 5.378906 -0.476562 5.515625 -0.40625 L 5.5 0 L 0.546875 0 L 0.53125 -0.40625 C 0.675781 -0.488281 0.804688 -0.546875 0.921875 -0.578125 C 1.046875 -0.609375 1.191406 -0.640625 1.359375 -0.671875 C 1.566406 -0.703125 1.71875 -0.742188 1.8125 -0.796875 C 1.914062 -0.859375 1.992188 -0.988281 2.046875 -1.1875 C 2.109375 -1.394531 2.140625 -1.722656 2.140625 -2.171875 L 2.140625 -8.09375 C 2.140625 -8.457031 2.109375 -8.734375 2.046875 -8.921875 C 1.984375 -9.109375 1.894531 -9.234375 1.78125 -9.296875 C 1.664062 -9.367188 1.484375 -9.445312 1.234375 -9.53125 C 0.960938 -9.601562 0.726562 -9.679688 0.53125 -9.765625 L 0.546875 -10.171875 L 4.15625 -10.171875 C 5.125 -10.171875 5.972656 -10.125 6.703125 -10.03125 C 7.429688 -9.945312 8.082031 -9.710938 8.65625 -9.328125 C 9.238281 -8.953125 9.53125 -8.367188 9.53125 -7.578125 C 9.53125 -7.085938 9.390625 -6.664062 9.109375 -6.3125 C 8.835938 -5.957031 8.488281 -5.675781 8.0625 -5.46875 C 7.632812 -5.269531 7.175781 -5.132812 6.6875 -5.0625 C 6.75 -4.976562 7.054688 -4.546875 7.609375 -3.765625 C 8.023438 -3.179688 8.375 -2.691406 8.65625 -2.296875 C 8.945312 -1.910156 9.238281 -1.546875 9.53125 -1.203125 C 9.695312 -1.015625 9.847656 -0.867188 9.984375 -0.765625 C 10.117188 -0.660156 10.285156 -0.578125 10.484375 -0.515625 C 10.691406 -0.453125 10.953125 -0.421875 11.265625 -0.421875 L 11.265625 0.015625 C 10.742188 0.140625 10.285156 0.203125 9.890625 0.203125 C 9.335938 0.203125 8.828125 0.0351562 8.359375 -0.296875 C 7.898438 -0.640625 7.503906 -1.039062 7.171875 -1.5 C 6.835938 -1.96875 6.453125 -2.5625 6.015625 -3.28125 C 5.765625 -3.71875 5.570312 -4.035156 5.4375 -4.234375 Z M 4.21875 -5.5 C 4.882812 -5.5 5.457031 -5.535156 5.9375 -5.609375 C 6.425781 -5.691406 6.84375 -5.878906 7.1875 -6.171875 C 7.53125 -6.460938 7.703125 -6.898438 7.703125 -7.484375 C 7.703125 -8.128906 7.515625 -8.601562 7.140625 -8.90625 C 6.773438 -9.21875 6.34375 -9.410156 5.84375 -9.484375 C 5.34375 -9.554688 4.726562 -9.59375 4 -9.59375 L 3.828125 -9.59375 L 3.828125 -5.5 Z M 4.21875 -5.5 "/></g></g></g><g fill="#f9f6f2" fill-opacity="1"><g transform="translate(112.293061, 228.867993)"><g><path d="M 7.296875 -8.375 L 7.109375 -8.84375 C 7.023438 -9.050781 6.960938 -9.207031 6.921875 -9.3125 C 6.859375 -9.363281 6.644531 -9.460938 6.28125 -9.609375 C 5.988281 -9.722656 5.78125 -9.804688 5.65625 -9.859375 C 5.53125 -9.921875 5.46875 -9.972656 5.46875 -10.015625 C 5.46875 -10.023438 5.472656 -10.050781 5.484375 -10.09375 C 5.503906 -10.132812 5.519531 -10.160156 5.53125 -10.171875 L 10.546875 -10.171875 C 10.546875 -10.160156 10.550781 -10.132812 10.5625 -10.09375 C 10.582031 -10.0625 10.59375 -10.035156 10.59375 -10.015625 C 10.59375 -9.898438 10.535156 -9.820312 10.421875 -9.78125 C 10.304688 -9.75 10.128906 -9.722656 9.890625 -9.703125 C 9.628906 -9.679688 9.429688 -9.644531 9.296875 -9.59375 C 9.160156 -9.539062 9.09375 -9.4375 9.09375 -9.28125 C 9.09375 -9.175781 9.382812 -8.203125 9.96875 -6.359375 C 10.550781 -4.515625 10.9375 -3.320312 11.125 -2.78125 L 11.34375 -3.4375 C 12.5625 -7.082031 13.171875 -9.03125 13.171875 -9.28125 C 13.171875 -9.4375 13.09375 -9.546875 12.9375 -9.609375 C 12.78125 -9.679688 12.550781 -9.738281 12.25 -9.78125 C 12.125 -9.789062 12 -9.804688 11.875 -9.828125 C 11.757812 -9.859375 11.671875 -9.894531 11.609375 -9.9375 L 11.5625 -10.015625 L 11.609375 -10.171875 L 15.640625 -10.171875 C 15.660156 -10.171875 15.6875 -10.160156 15.71875 -10.140625 C 15.75 -10.128906 15.769531 -10.113281 15.78125 -10.09375 C 15.78125 -10.007812 15.71875 -9.945312 15.59375 -9.90625 C 15.476562 -9.863281 15.289062 -9.8125 15.03125 -9.75 C 14.632812 -9.664062 14.320312 -9.578125 14.09375 -9.484375 C 13.863281 -9.390625 13.710938 -9.242188 13.640625 -9.046875 C 13.585938 -8.878906 13.53125 -8.691406 13.46875 -8.484375 C 13.40625 -8.273438 13.359375 -8.125 13.328125 -8.03125 C 13.296875 -7.90625 13.269531 -7.8125 13.25 -7.75 L 10.921875 -0.015625 C 10.890625 0.0976562 10.78125 0.15625 10.59375 0.15625 C 10.507812 0.15625 10.4375 0.144531 10.375 0.125 C 10.320312 0.101562 10.28125 0.0546875 10.25 -0.015625 C 10.15625 -0.203125 10.054688 -0.484375 9.953125 -0.859375 L 9.8125 -1.3125 L 7.59375 -7.765625 L 5.578125 -1.953125 C 5.523438 -1.816406 5.457031 -1.601562 5.375 -1.3125 C 5.28125 -0.988281 5.195312 -0.734375 5.125 -0.546875 C 5.0625 -0.359375 4.988281 -0.179688 4.90625 -0.015625 C 4.875 0.0546875 4.832031 0.101562 4.78125 0.125 C 4.726562 0.15625 4.660156 0.171875 4.578125 0.171875 C 4.421875 0.171875 4.285156 0.0625 4.171875 -0.15625 C 4.066406 -0.382812 3.957031 -0.671875 3.84375 -1.015625 L 3.765625 -1.265625 L 2.703125 -4.125 C 2.117188 -5.695312 1.53125 -7.257812 0.9375 -8.8125 C 0.851562 -9.03125 0.734375 -9.191406 0.578125 -9.296875 C 0.421875 -9.398438 0.207031 -9.503906 -0.0625 -9.609375 C -0.257812 -9.679688 -0.410156 -9.742188 -0.515625 -9.796875 C -0.617188 -9.847656 -0.71875 -9.914062 -0.8125 -10 L -0.75 -10.171875 L 4.28125 -10.171875 C 4.28125 -10.160156 4.285156 -10.132812 4.296875 -10.09375 C 4.304688 -10.0625 4.3125 -10.035156 4.3125 -10.015625 C 4.3125 -9.910156 4.257812 -9.835938 4.15625 -9.796875 C 4.0625 -9.765625 3.910156 -9.734375 3.703125 -9.703125 C 3.453125 -9.671875 3.257812 -9.625 3.125 -9.5625 C 3 -9.507812 2.9375 -9.398438 2.9375 -9.234375 C 2.9375 -9.160156 3.210938 -8.332031 3.765625 -6.75 C 4.328125 -5.164062 4.804688 -3.835938 5.203125 -2.765625 Z M 7.296875 -8.375 "/></g></g></g><g fill="#f9f6f2" fill-opacity="1"><g transform="translate(127.390941, 228.867993)"><g><path d="M 6.28125 -10.375 C 7.257812 -10.375 8.15625 -10.15625 8.96875 -9.71875 C 9.789062 -9.28125 10.441406 -8.65625 10.921875 -7.84375 C 11.410156 -7.039062 11.65625 -6.113281 11.65625 -5.0625 C 11.65625 -4.03125 11.40625 -3.113281 10.90625 -2.3125 C 10.40625 -1.519531 9.734375 -0.898438 8.890625 -0.453125 C 8.046875 -0.015625 7.125 0.203125 6.125 0.203125 C 5.207031 0.203125 4.347656 -0.00390625 3.546875 -0.421875 C 2.742188 -0.847656 2.097656 -1.453125 1.609375 -2.234375 C 1.117188 -3.023438 0.875 -3.941406 0.875 -4.984375 C 0.875 -6.117188 1.128906 -7.09375 1.640625 -7.90625 C 2.160156 -8.71875 2.832031 -9.332031 3.65625 -9.75 C 4.476562 -10.164062 5.351562 -10.375 6.28125 -10.375 Z M 6.546875 -0.40625 C 7.171875 -0.40625 7.734375 -0.570312 8.234375 -0.90625 C 8.734375 -1.238281 9.125 -1.71875 9.40625 -2.34375 C 9.6875 -2.976562 9.828125 -3.722656 9.828125 -4.578125 C 9.828125 -5.546875 9.664062 -6.421875 9.34375 -7.203125 C 9.019531 -7.992188 8.566406 -8.617188 7.984375 -9.078125 C 7.410156 -9.535156 6.753906 -9.765625 6.015625 -9.765625 C 5.398438 -9.765625 4.84375 -9.609375 4.34375 -9.296875 C 3.84375 -8.984375 3.441406 -8.515625 3.140625 -7.890625 C 2.847656 -7.265625 2.703125 -6.507812 2.703125 -5.625 C 2.703125 -4.644531 2.863281 -3.753906 3.1875 -2.953125 C 3.519531 -2.160156 3.976562 -1.535156 4.5625 -1.078125 C 5.144531 -0.628906 5.804688 -0.40625 6.546875 -0.40625 Z M 6.546875 -0.40625 "/></g></g></g><g fill="#f9f6f2" fill-opacity="1"><g transform="translate(139.911326, 228.867993)"><g><path d="M 6.28125 -10.375 C 7.257812 -10.375 8.15625 -10.15625 8.96875 -9.71875 C 9.789062 -9.28125 10.441406 -8.65625 10.921875 -7.84375 C 11.410156 -7.039062 11.65625 -6.113281 11.65625 -5.0625 C 11.65625 -4.03125 11.40625 -3.113281 10.90625 -2.3125 C 10.40625 -1.519531 9.734375 -0.898438 8.890625 -0.453125 C 8.046875 -0.015625 7.125 0.203125 6.125 0.203125 C 5.207031 0.203125 4.347656 -0.00390625 3.546875 -0.421875 C 2.742188 -0.847656 2.097656 -1.453125 1.609375 -2.234375 C 1.117188 -3.023438 0.875 -3.941406 0.875 -4.984375 C 0.875 -6.117188 1.128906 -7.09375 1.640625 -7.90625 C 2.160156 -8.71875 2.832031 -9.332031 3.65625 -9.75 C 4.476562 -10.164062 5.351562 -10.375 6.28125 -10.375 Z M 6.546875 -0.40625 C 7.171875 -0.40625 7.734375 -0.570312 8.234375 -0.90625 C 8.734375 -1.238281 9.125 -1.71875 9.40625 -2.34375 C 9.6875 -2.976562 9.828125 -3.722656 9.828125 -4.578125 C 9.828125 -5.546875 9.664062 -6.421875 9.34375 -7.203125 C 9.019531 -7.992188 8.566406 -8.617188 7.984375 -9.078125 C 7.410156 -9.535156 6.753906 -9.765625 6.015625 -9.765625 C 5.398438 -9.765625 4.84375 -9.609375 4.34375 -9.296875 C 3.84375 -8.984375 3.441406 -8.515625 3.140625 -7.890625 C 2.847656 -7.265625 2.703125 -6.507812 2.703125 -5.625 C 2.703125 -4.644531 2.863281 -3.753906 3.1875 -2.953125 C 3.519531 -2.160156 3.976562 -1.535156 4.5625 -1.078125 C 5.144531 -0.628906 5.804688 -0.40625 6.546875 -0.40625 Z M 6.546875 -0.40625 "/></g></g></g><g fill="#f9f6f2" fill-opacity="1"><g transform="translate(152.431711, 228.867993)"><g><path d="M 2.28125 -7.890625 C 2.28125 -8.203125 2.253906 -8.519531 2.203125 -8.84375 C 2.171875 -9 2.09375 -9.125 1.96875 -9.21875 C 1.84375 -9.320312 1.703125 -9.40625 1.546875 -9.46875 C 1.390625 -9.53125 1.1875 -9.59375 0.9375 -9.65625 C 0.75 -9.707031 0.613281 -9.75 0.53125 -9.78125 L 0.546875 -10.171875 L 5.171875 -10.171875 C 6.472656 -10.171875 7.617188 -10 8.609375 -9.65625 C 9.597656 -9.320312 10.378906 -8.78125 10.953125 -8.03125 C 11.523438 -7.289062 11.8125 -6.328125 11.8125 -5.140625 C 11.8125 -4.234375 11.59375 -3.390625 11.15625 -2.609375 C 10.726562 -1.828125 10.085938 -1.195312 9.234375 -0.71875 C 8.378906 -0.238281 7.359375 0 6.171875 0 L 0.546875 0 L 0.53125 -0.40625 L 0.953125 -0.515625 C 1.242188 -0.585938 1.476562 -0.65625 1.65625 -0.71875 C 1.832031 -0.789062 1.976562 -0.90625 2.09375 -1.0625 C 2.21875 -1.21875 2.28125 -1.4375 2.28125 -1.71875 Z M 3.96875 -2.125 C 3.96875 -1.664062 4.050781 -1.304688 4.21875 -1.046875 C 4.394531 -0.785156 4.695312 -0.644531 5.125 -0.625 C 5.414062 -0.613281 5.710938 -0.609375 6.015625 -0.609375 C 6.867188 -0.609375 7.59375 -0.804688 8.1875 -1.203125 C 8.78125 -1.597656 9.222656 -2.113281 9.515625 -2.75 C 9.804688 -3.382812 9.953125 -4.054688 9.953125 -4.765625 C 9.953125 -5.691406 9.785156 -6.515625 9.453125 -7.234375 C 9.117188 -7.960938 8.601562 -8.535156 7.90625 -8.953125 C 7.207031 -9.367188 6.332031 -9.578125 5.28125 -9.578125 L 3.96875 -9.578125 Z M 3.96875 -2.125 "/></g></g></g><g fill="#f9f6f2" fill-opacity="1"><g transform="translate(164.959901, 228.867993)"><g/></g></g><g fill="#f9f6f2" fill-opacity="1"><g transform="translate(168.708985, 228.867993)"><g><path d="M 9.953125 -7.359375 C 9.890625 -7.421875 9.816406 -7.515625 9.734375 -7.640625 C 9.660156 -7.765625 9.585938 -7.890625 9.515625 -8.015625 C 9.492188 -8.046875 9.445312 -8.117188 9.375 -8.234375 C 9.3125 -8.347656 9.25 -8.445312 9.1875 -8.53125 C 9.132812 -8.613281 9.082031 -8.679688 9.03125 -8.734375 C 8.6875 -9.078125 8.300781 -9.332031 7.875 -9.5 C 7.445312 -9.675781 7 -9.765625 6.53125 -9.765625 C 5.851562 -9.765625 5.222656 -9.585938 4.640625 -9.234375 C 4.054688 -8.890625 3.585938 -8.378906 3.234375 -7.703125 C 2.878906 -7.035156 2.703125 -6.238281 2.703125 -5.3125 C 2.703125 -4.375 2.875 -3.550781 3.21875 -2.84375 C 3.5625 -2.132812 4.046875 -1.585938 4.671875 -1.203125 C 5.296875 -0.828125 6.023438 -0.640625 6.859375 -0.640625 C 7.566406 -0.640625 8.195312 -0.785156 8.75 -1.078125 C 9.300781 -1.367188 9.726562 -1.800781 10.03125 -2.375 L 10.40625 -2.328125 L 10.34375 -0.84375 C 9.769531 -0.53125 9.113281 -0.273438 8.375 -0.078125 C 7.632812 0.109375 6.941406 0.203125 6.296875 0.203125 C 5.273438 0.203125 4.351562 -0.00390625 3.53125 -0.421875 C 2.707031 -0.847656 2.054688 -1.453125 1.578125 -2.234375 C 1.109375 -3.023438 0.875 -3.945312 0.875 -5 C 0.875 -6 1.113281 -6.90625 1.59375 -7.71875 C 2.082031 -8.539062 2.769531 -9.1875 3.65625 -9.65625 C 4.550781 -10.132812 5.582031 -10.375 6.75 -10.375 C 7.820312 -10.375 8.90625 -10.160156 10 -9.734375 L 10.328125 -7.375 Z M 9.953125 -7.359375 "/></g></g></g><g fill="#f9f6f2" fill-opacity="1"><g transform="translate(179.846889, 228.867993)"><g><path d="M 6.28125 -10.375 C 7.257812 -10.375 8.15625 -10.15625 8.96875 -9.71875 C 9.789062 -9.28125 10.441406 -8.65625 10.921875 -7.84375 C 11.410156 -7.039062 11.65625 -6.113281 11.65625 -5.0625 C 11.65625 -4.03125 11.40625 -3.113281 10.90625 -2.3125 C 10.40625 -1.519531 9.734375 -0.898438 8.890625 -0.453125 C 8.046875 -0.015625 7.125 0.203125 6.125 0.203125 C 5.207031 0.203125 4.347656 -0.00390625 3.546875 -0.421875 C 2.742188 -0.847656 2.097656 -1.453125 1.609375 -2.234375 C 1.117188 -3.023438 0.875 -3.941406 0.875 -4.984375 C 0.875 -6.117188 1.128906 -7.09375 1.640625 -7.90625 C 2.160156 -8.71875 2.832031 -9.332031 3.65625 -9.75 C 4.476562 -10.164062 5.351562 -10.375 6.28125 -10.375 Z M 6.546875 -0.40625 C 7.171875 -0.40625 7.734375 -0.570312 8.234375 -0.90625 C 8.734375 -1.238281 9.125 -1.71875 9.40625 -2.34375 C 9.6875 -2.976562 9.828125 -3.722656 9.828125 -4.578125 C 9.828125 -5.546875 9.664062 -6.421875 9.34375 -7.203125 C 9.019531 -7.992188 8.566406 -8.617188 7.984375 -9.078125 C 7.410156 -9.535156 6.753906 -9.765625 6.015625 -9.765625 C 5.398438 -9.765625 4.84375 -9.609375 4.34375 -9.296875 C 3.84375 -8.984375 3.441406 -8.515625 3.140625 -7.890625 C 2.847656 -7.265625 2.703125 -6.507812 2.703125 -5.625 C 2.703125 -4.644531 2.863281 -3.753906 3.1875 -2.953125 C 3.519531 -2.160156 3.976562 -1.535156 4.5625 -1.078125 C 5.144531 -0.628906 5.804688 -0.40625 6.546875 -0.40625 Z M 6.546875 -0.40625 "/></g></g></g><g fill="#f9f6f2" fill-opacity="1"><g transform="translate(192.367274, 228.867993)"><g><path d="M 2.53125 -8.53125 C 2.394531 -8.75 2.253906 -8.921875 2.109375 -9.046875 C 1.960938 -9.179688 1.816406 -9.28125 1.671875 -9.34375 C 1.523438 -9.414062 1.328125 -9.492188 1.078125 -9.578125 C 0.847656 -9.648438 0.664062 -9.710938 0.53125 -9.765625 L 0.53125 -10.171875 L 3.265625 -10.171875 L 10.609375 -2.578125 L 10.609375 -7.484375 C 10.609375 -7.984375 10.539062 -8.4375 10.40625 -8.84375 C 10.34375 -9.007812 10.257812 -9.140625 10.15625 -9.234375 C 10.0625 -9.328125 9.957031 -9.394531 9.84375 -9.4375 C 9.726562 -9.476562 9.578125 -9.519531 9.390625 -9.5625 C 9.359375 -9.570312 9.273438 -9.59375 9.140625 -9.625 C 9.015625 -9.664062 8.898438 -9.710938 8.796875 -9.765625 C 8.796875 -9.898438 8.804688 -10.035156 8.828125 -10.171875 L 12.9375 -10.171875 L 12.9375 -9.75 C 12.789062 -9.6875 12.640625 -9.625 12.484375 -9.5625 C 12.109375 -9.394531 11.847656 -9.253906 11.703125 -9.140625 C 11.554688 -9.035156 11.453125 -8.863281 11.390625 -8.625 C 11.328125 -8.394531 11.296875 -8.019531 11.296875 -7.5 C 11.296875 -7.226562 11.289062 -6.832031 11.28125 -6.3125 C 11.269531 -5.914062 11.257812 -5.421875 11.25 -4.828125 C 11.25 -4.242188 11.25 -3.554688 11.25 -2.765625 C 11.25 -2.421875 11.28125 -1.910156 11.34375 -1.234375 C 11.394531 -0.660156 11.425781 -0.222656 11.4375 0.078125 C 11.332031 0.109375 11.203125 0.125 11.046875 0.125 C 10.878906 0.125 10.734375 0.109375 10.609375 0.078125 C 10.234375 -0.390625 9.804688 -0.878906 9.328125 -1.390625 L 3.15625 -7.890625 L 3.15625 -2.40625 C 3.15625 -2.050781 3.195312 -1.695312 3.28125 -1.34375 C 3.320312 -1.164062 3.394531 -1.03125 3.5 -0.9375 C 3.613281 -0.84375 3.734375 -0.773438 3.859375 -0.734375 C 3.992188 -0.691406 4.171875 -0.648438 4.390625 -0.609375 C 4.691406 -0.554688 4.914062 -0.492188 5.0625 -0.421875 C 5.0625 -0.285156 5.050781 -0.144531 5.03125 0 L 0.625 0 C 0.613281 -0.09375 0.609375 -0.234375 0.609375 -0.421875 L 0.96875 -0.515625 C 1.300781 -0.597656 1.566406 -0.675781 1.765625 -0.75 C 1.960938 -0.832031 2.128906 -0.960938 2.265625 -1.140625 C 2.410156 -1.316406 2.5 -1.5625 2.53125 -1.875 Z M 2.53125 -8.53125 "/></g></g></g><g fill="#f9f6f2" fill-opacity="1"><g transform="translate(205.832735, 228.867993)"><g><path d="M 1.53125 -3.140625 C 1.582031 -3.054688 1.625 -2.96875 1.65625 -2.875 C 1.695312 -2.78125 1.738281 -2.65625 1.78125 -2.5 C 1.800781 -2.445312 1.816406 -2.390625 1.828125 -2.328125 C 2.015625 -1.722656 2.363281 -1.257812 2.875 -0.9375 C 3.382812 -0.613281 3.96875 -0.453125 4.625 -0.453125 C 4.96875 -0.453125 5.300781 -0.515625 5.625 -0.640625 C 5.945312 -0.765625 6.210938 -0.945312 6.421875 -1.1875 C 6.640625 -1.4375 6.75 -1.738281 6.75 -2.09375 C 6.75 -2.40625 6.640625 -2.691406 6.421875 -2.953125 C 6.203125 -3.222656 5.929688 -3.460938 5.609375 -3.671875 C 5.296875 -3.878906 4.859375 -4.140625 4.296875 -4.453125 C 3.628906 -4.816406 3.085938 -5.140625 2.671875 -5.421875 C 2.265625 -5.703125 1.914062 -6.035156 1.625 -6.421875 C 1.34375 -6.816406 1.203125 -7.257812 1.203125 -7.75 C 1.203125 -8.351562 1.375 -8.847656 1.71875 -9.234375 C 2.0625 -9.628906 2.5 -9.914062 3.03125 -10.09375 C 3.5625 -10.28125 4.125 -10.375 4.71875 -10.375 C 5.226562 -10.375 5.738281 -10.3125 6.25 -10.1875 C 6.757812 -10.0625 7.242188 -9.878906 7.703125 -9.640625 L 7.796875 -7.421875 L 7.3125 -7.421875 C 7.25 -7.535156 7.175781 -7.722656 7.09375 -7.984375 L 7.015625 -8.21875 C 6.835938 -8.726562 6.53125 -9.113281 6.09375 -9.375 C 5.664062 -9.632812 5.164062 -9.765625 4.59375 -9.765625 C 4.300781 -9.765625 4.003906 -9.710938 3.703125 -9.609375 C 3.410156 -9.515625 3.164062 -9.363281 2.96875 -9.15625 C 2.769531 -8.957031 2.671875 -8.707031 2.671875 -8.40625 C 2.671875 -8.125 2.773438 -7.859375 2.984375 -7.609375 C 3.191406 -7.367188 3.445312 -7.144531 3.75 -6.9375 C 4.0625 -6.738281 4.488281 -6.488281 5.03125 -6.1875 C 5.71875 -5.800781 6.273438 -5.460938 6.703125 -5.171875 C 7.140625 -4.878906 7.507812 -4.523438 7.8125 -4.109375 C 8.113281 -3.691406 8.265625 -3.21875 8.265625 -2.6875 C 8.265625 -2.039062 8.082031 -1.5 7.71875 -1.0625 C 7.363281 -0.625 6.898438 -0.300781 6.328125 -0.09375 C 5.765625 0.101562 5.160156 0.203125 4.515625 0.203125 C 3.941406 0.203125 3.328125 0.128906 2.671875 -0.015625 C 2.015625 -0.160156 1.484375 -0.359375 1.078125 -0.609375 L 1.078125 -3.125 Z M 1.53125 -3.140625 "/></g></g></g><g fill="#f9f6f2" fill-opacity="1"><g transform="translate(214.947702, 228.867993)"><g><path d="M 5.40625 -9.765625 C 5.1875 -9.691406 4.910156 -9.617188 4.578125 -9.546875 C 4.296875 -9.492188 4.09375 -9.429688 3.96875 -9.359375 C 3.84375 -9.285156 3.75 -9.148438 3.6875 -8.953125 C 3.625 -8.753906 3.59375 -8.4375 3.59375 -8 L 3.59375 -4.65625 C 3.59375 -3.40625 3.84375 -2.421875 4.34375 -1.703125 C 4.851562 -0.992188 5.71875 -0.640625 6.9375 -0.640625 C 9.175781 -0.640625 10.296875 -2.023438 10.296875 -4.796875 L 10.296875 -7.859375 C 10.296875 -8.328125 10.257812 -8.664062 10.1875 -8.875 C 10.125 -9.09375 10.023438 -9.238281 9.890625 -9.3125 C 9.753906 -9.394531 9.53125 -9.476562 9.21875 -9.5625 C 8.914062 -9.632812 8.664062 -9.707031 8.46875 -9.78125 L 8.46875 -10.171875 L 12.6875 -10.171875 L 12.703125 -9.765625 C 12.617188 -9.722656 12.53125 -9.691406 12.4375 -9.671875 C 12.351562 -9.648438 12.234375 -9.625 12.078125 -9.59375 C 11.878906 -9.5625 11.71875 -9.523438 11.59375 -9.484375 C 11.476562 -9.453125 11.367188 -9.394531 11.265625 -9.3125 C 11.171875 -9.238281 11.101562 -9.128906 11.0625 -8.984375 C 10.976562 -8.703125 10.9375 -8.367188 10.9375 -7.984375 C 10.9375 -7.734375 10.941406 -7.335938 10.953125 -6.796875 C 10.960938 -6.253906 10.96875 -5.847656 10.96875 -5.578125 C 10.96875 -4.390625 10.863281 -3.382812 10.65625 -2.5625 C 10.445312 -1.75 10.007812 -1.082031 9.34375 -0.5625 C 8.6875 -0.0507812 7.710938 0.203125 6.421875 0.203125 C 5.671875 0.203125 4.972656 0.0820312 4.328125 -0.15625 C 3.679688 -0.394531 3.144531 -0.765625 2.71875 -1.265625 C 2.289062 -1.765625 2.039062 -2.390625 1.96875 -3.140625 C 1.90625 -3.679688 1.875 -4.363281 1.875 -5.1875 C 1.875 -5.664062 1.878906 -6.140625 1.890625 -6.609375 C 1.898438 -7.234375 1.90625 -7.695312 1.90625 -8 C 1.90625 -8.382812 1.878906 -8.6875 1.828125 -8.90625 C 1.773438 -9.113281 1.644531 -9.269531 1.4375 -9.375 C 1.238281 -9.476562 0.960938 -9.570312 0.609375 -9.65625 C 0.441406 -9.707031 0.304688 -9.75 0.203125 -9.78125 L 0.234375 -10.171875 L 5.390625 -10.171875 Z M 5.40625 -9.765625 "/></g></g></g><g fill="#f9f6f2" fill-opacity="1"><g transform="translate(227.749268, 228.867993)"><g><path d="M 2.34375 -8.078125 C 2.34375 -8.503906 2.304688 -8.8125 2.234375 -9 C 2.171875 -9.195312 2.070312 -9.328125 1.9375 -9.390625 C 1.8125 -9.460938 1.601562 -9.53125 1.3125 -9.59375 C 0.957031 -9.664062 0.703125 -9.726562 0.546875 -9.78125 L 0.5625 -10.171875 L 5.84375 -10.171875 L 5.84375 -9.765625 C 5.6875 -9.703125 5.546875 -9.65625 5.421875 -9.625 C 5.304688 -9.601562 5.148438 -9.570312 4.953125 -9.53125 C 4.703125 -9.488281 4.515625 -9.4375 4.390625 -9.375 C 4.273438 -9.320312 4.1875 -9.203125 4.125 -9.015625 C 4.0625 -8.828125 4.03125 -8.53125 4.03125 -8.125 L 4.03125 -2.4375 C 4.03125 -1.8125 4.085938 -1.375 4.203125 -1.125 C 4.328125 -0.882812 4.554688 -0.734375 4.890625 -0.671875 C 5.234375 -0.609375 5.859375 -0.578125 6.765625 -0.578125 C 7.335938 -0.578125 7.816406 -0.648438 8.203125 -0.796875 C 8.597656 -0.953125 8.914062 -1.253906 9.15625 -1.703125 L 9.265625 -1.9375 C 9.347656 -2.101562 9.421875 -2.242188 9.484375 -2.359375 C 9.554688 -2.484375 9.640625 -2.59375 9.734375 -2.6875 L 10.203125 -2.671875 L 9.703125 0.09375 C 9.003906 0.03125 8.4375 0 8 0 L 0.546875 0 L 0.53125 -0.421875 C 0.613281 -0.453125 0.78125 -0.503906 1.03125 -0.578125 C 1.332031 -0.648438 1.566406 -0.722656 1.734375 -0.796875 C 1.910156 -0.878906 2.054688 -1.003906 2.171875 -1.171875 C 2.285156 -1.335938 2.34375 -1.570312 2.34375 -1.875 Z M 2.34375 -8.078125 "/></g></g></g><g fill="#f9f6f2" fill-opacity="1"><g transform="translate(237.871796, 228.867993)"><g><path d="M 3.4375 -9.59375 C 2.957031 -9.59375 2.578125 -9.570312 2.296875 -9.53125 C 2.117188 -9.507812 1.953125 -9.4375 1.796875 -9.3125 C 1.648438 -9.195312 1.523438 -9.0625 1.421875 -8.90625 C 1.316406 -8.757812 1.1875 -8.554688 1.03125 -8.296875 C 0.875 -8.023438 0.738281 -7.816406 0.625 -7.671875 L 0.265625 -7.671875 L 0.46875 -10.21875 C 1.320312 -10.1875 2.429688 -10.171875 3.796875 -10.171875 L 7.859375 -10.171875 C 8.910156 -10.171875 9.765625 -10.191406 10.421875 -10.234375 L 10.671875 -7.671875 L 10.296875 -7.671875 C 10.210938 -7.765625 10.128906 -7.878906 10.046875 -8.015625 C 9.960938 -8.160156 9.910156 -8.253906 9.890625 -8.296875 C 9.679688 -8.671875 9.484375 -8.960938 9.296875 -9.171875 C 9.117188 -9.378906 8.910156 -9.5 8.671875 -9.53125 C 8.492188 -9.5625 8.3125 -9.578125 8.125 -9.578125 C 7.945312 -9.585938 7.722656 -9.59375 7.453125 -9.59375 L 6.265625 -9.59375 L 6.265625 -1.890625 C 6.265625 -1.484375 6.332031 -1.179688 6.46875 -0.984375 C 6.601562 -0.796875 6.785156 -0.664062 7.015625 -0.59375 C 7.242188 -0.53125 7.582031 -0.46875 8.03125 -0.40625 C 8.03125 -0.226562 8.023438 -0.09375 8.015625 0 L 2.84375 0 L 2.828125 -0.40625 C 2.910156 -0.4375 3.046875 -0.476562 3.234375 -0.53125 C 3.546875 -0.625 3.789062 -0.710938 3.96875 -0.796875 C 4.144531 -0.878906 4.289062 -1.003906 4.40625 -1.171875 C 4.519531 -1.347656 4.578125 -1.585938 4.578125 -1.890625 L 4.578125 -9.59375 Z M 3.4375 -9.59375 "/></g></g></g><g fill="#f9f6f2" fill-opacity="1"><g transform="translate(248.767577, 228.867993)"><g><path d="M 3.984375 -2.03125 C 3.984375 -1.632812 4.015625 -1.34375 4.078125 -1.15625 C 4.148438 -0.96875 4.25 -0.84375 4.375 -0.78125 C 4.5 -0.71875 4.691406 -0.664062 4.953125 -0.625 C 5.265625 -0.570312 5.539062 -0.503906 5.78125 -0.421875 L 5.765625 0 L 0.5625 0 L 0.5625 -0.40625 C 0.71875 -0.476562 0.851562 -0.523438 0.96875 -0.546875 C 1.09375 -0.578125 1.25 -0.609375 1.4375 -0.640625 C 1.675781 -0.671875 1.847656 -0.71875 1.953125 -0.78125 C 2.066406 -0.84375 2.148438 -0.976562 2.203125 -1.1875 C 2.265625 -1.394531 2.296875 -1.722656 2.296875 -2.171875 L 2.296875 -8.046875 C 2.296875 -8.472656 2.257812 -8.785156 2.1875 -8.984375 C 2.113281 -9.191406 2.019531 -9.320312 1.90625 -9.375 C 1.789062 -9.4375 1.617188 -9.484375 1.390625 -9.515625 C 1.203125 -9.546875 1.046875 -9.578125 0.921875 -9.609375 C 0.796875 -9.640625 0.664062 -9.695312 0.53125 -9.78125 L 0.546875 -10.171875 L 5.734375 -10.171875 L 5.75 -9.765625 C 5.632812 -9.722656 5.476562 -9.679688 5.28125 -9.640625 C 4.988281 -9.566406 4.753906 -9.492188 4.578125 -9.421875 C 4.410156 -9.347656 4.269531 -9.234375 4.15625 -9.078125 C 4.039062 -8.921875 3.984375 -8.710938 3.984375 -8.453125 Z M 3.984375 -2.03125 "/></g></g></g><g fill="#f9f6f2" fill-opacity="1"><g transform="translate(255.070731, 228.867993)"><g><path d="M 2.53125 -8.53125 C 2.394531 -8.75 2.253906 -8.921875 2.109375 -9.046875 C 1.960938 -9.179688 1.816406 -9.28125 1.671875 -9.34375 C 1.523438 -9.414062 1.328125 -9.492188 1.078125 -9.578125 C 0.847656 -9.648438 0.664062 -9.710938 0.53125 -9.765625 L 0.53125 -10.171875 L 3.265625 -10.171875 L 10.609375 -2.578125 L 10.609375 -7.484375 C 10.609375 -7.984375 10.539062 -8.4375 10.40625 -8.84375 C 10.34375 -9.007812 10.257812 -9.140625 10.15625 -9.234375 C 10.0625 -9.328125 9.957031 -9.394531 9.84375 -9.4375 C 9.726562 -9.476562 9.578125 -9.519531 9.390625 -9.5625 C 9.359375 -9.570312 9.273438 -9.59375 9.140625 -9.625 C 9.015625 -9.664062 8.898438 -9.710938 8.796875 -9.765625 C 8.796875 -9.898438 8.804688 -10.035156 8.828125 -10.171875 L 12.9375 -10.171875 L 12.9375 -9.75 C 12.789062 -9.6875 12.640625 -9.625 12.484375 -9.5625 C 12.109375 -9.394531 11.847656 -9.253906 11.703125 -9.140625 C 11.554688 -9.035156 11.453125 -8.863281 11.390625 -8.625 C 11.328125 -8.394531 11.296875 -8.019531 11.296875 -7.5 C 11.296875 -7.226562 11.289062 -6.832031 11.28125 -6.3125 C 11.269531 -5.914062 11.257812 -5.421875 11.25 -4.828125 C 11.25 -4.242188 11.25 -3.554688 11.25 -2.765625 C 11.25 -2.421875 11.28125 -1.910156 11.34375 -1.234375 C 11.394531 -0.660156 11.425781 -0.222656 11.4375 0.078125 C 11.332031 0.109375 11.203125 0.125 11.046875 0.125 C 10.878906 0.125 10.734375 0.109375 10.609375 0.078125 C 10.234375 -0.390625 9.804688 -0.878906 9.328125 -1.390625 L 3.15625 -7.890625 L 3.15625 -2.40625 C 3.15625 -2.050781 3.195312 -1.695312 3.28125 -1.34375 C 3.320312 -1.164062 3.394531 -1.03125 3.5 -0.9375 C 3.613281 -0.84375 3.734375 -0.773438 3.859375 -0.734375 C 3.992188 -0.691406 4.171875 -0.648438 4.390625 -0.609375 C 4.691406 -0.554688 4.914062 -0.492188 5.0625 -0.421875 C 5.0625 -0.285156 5.050781 -0.144531 5.03125 0 L 0.625 0 C 0.613281 -0.09375 0.609375 -0.234375 0.609375 -0.421875 L 0.96875 -0.515625 C 1.300781 -0.597656 1.566406 -0.675781 1.765625 -0.75 C 1.960938 -0.832031 2.128906 -0.960938 2.265625 -1.140625 C 2.410156 -1.316406 2.5 -1.5625 2.53125 -1.875 Z M 2.53125 -8.53125 "/></g></g></g><g fill="#f9f6f2" fill-opacity="1"><g transform="translate(268.536192, 228.867993)"><g><path d="M 10.828125 -0.75 C 10.285156 -0.457031 9.660156 -0.222656 8.953125 -0.046875 C 8.242188 0.117188 7.523438 0.203125 6.796875 0.203125 C 5.617188 0.203125 4.582031 -0.0078125 3.6875 -0.4375 C 2.800781 -0.875 2.109375 -1.484375 1.609375 -2.265625 C 1.117188 -3.046875 0.875 -3.953125 0.875 -4.984375 C 0.875 -6.046875 1.15625 -6.984375 1.71875 -7.796875 C 2.28125 -8.617188 3.035156 -9.253906 3.984375 -9.703125 C 4.929688 -10.148438 5.96875 -10.375 7.09375 -10.375 C 7.707031 -10.375 8.269531 -10.328125 8.78125 -10.234375 C 9.289062 -10.140625 9.867188 -9.976562 10.515625 -9.75 L 10.75 -7.390625 C 10.59375 -7.367188 10.441406 -7.359375 10.296875 -7.359375 C 10.222656 -7.421875 10.15625 -7.5 10.09375 -7.59375 C 10.039062 -7.695312 9.960938 -7.847656 9.859375 -8.046875 C 9.804688 -8.148438 9.75 -8.253906 9.6875 -8.359375 C 9.632812 -8.460938 9.582031 -8.539062 9.53125 -8.59375 C 8.875 -9.375 7.992188 -9.765625 6.890625 -9.765625 C 6.097656 -9.765625 5.382812 -9.566406 4.75 -9.171875 C 4.125 -8.785156 3.632812 -8.25 3.28125 -7.5625 C 2.925781 -6.882812 2.75 -6.125 2.75 -5.28125 C 2.75 -4.363281 2.921875 -3.539062 3.265625 -2.8125 C 3.617188 -2.082031 4.113281 -1.507812 4.75 -1.09375 C 5.382812 -0.6875 6.113281 -0.484375 6.9375 -0.484375 C 7.363281 -0.484375 7.742188 -0.519531 8.078125 -0.59375 C 8.410156 -0.675781 8.722656 -0.8125 9.015625 -1 C 9.078125 -1.53125 9.109375 -2.191406 9.109375 -2.984375 C 9.109375 -3.472656 9.035156 -3.921875 8.890625 -4.328125 C 8.835938 -4.484375 8.726562 -4.59375 8.5625 -4.65625 C 8.40625 -4.726562 8.191406 -4.785156 7.921875 -4.828125 C 7.679688 -4.867188 7.515625 -4.90625 7.421875 -4.9375 C 7.421875 -5.019531 7.421875 -5.097656 7.421875 -5.171875 C 7.429688 -5.253906 7.4375 -5.3125 7.4375 -5.34375 L 12.125 -5.34375 C 12.125 -5.3125 12.125 -5.253906 12.125 -5.171875 C 12.132812 -5.097656 12.140625 -5.019531 12.140625 -4.9375 C 12.078125 -4.914062 12.003906 -4.890625 11.921875 -4.859375 C 11.671875 -4.773438 11.472656 -4.691406 11.328125 -4.609375 C 11.191406 -4.535156 11.070312 -4.414062 10.96875 -4.25 C 10.875 -4.09375 10.828125 -3.882812 10.828125 -3.625 Z M 10.828125 -0.75 "/></g></g></g><g fill="#f9f6f2" fill-opacity="1"><g transform="translate(280.845685, 228.867993)"><g/></g></g><g fill="#f9f6f2" fill-opacity="1"><g transform="translate(284.594769, 228.867993)"><g><path d="M 2.34375 -8.078125 C 2.34375 -8.503906 2.304688 -8.8125 2.234375 -9 C 2.171875 -9.195312 2.070312 -9.328125 1.9375 -9.390625 C 1.8125 -9.460938 1.601562 -9.53125 1.3125 -9.59375 C 0.957031 -9.664062 0.703125 -9.726562 0.546875 -9.78125 L 0.5625 -10.171875 L 5.84375 -10.171875 L 5.84375 -9.765625 C 5.6875 -9.703125 5.546875 -9.65625 5.421875 -9.625 C 5.304688 -9.601562 5.148438 -9.570312 4.953125 -9.53125 C 4.703125 -9.488281 4.515625 -9.4375 4.390625 -9.375 C 4.273438 -9.320312 4.1875 -9.203125 4.125 -9.015625 C 4.0625 -8.828125 4.03125 -8.53125 4.03125 -8.125 L 4.03125 -2.4375 C 4.03125 -1.8125 4.085938 -1.375 4.203125 -1.125 C 4.328125 -0.882812 4.554688 -0.734375 4.890625 -0.671875 C 5.234375 -0.609375 5.859375 -0.578125 6.765625 -0.578125 C 7.335938 -0.578125 7.816406 -0.648438 8.203125 -0.796875 C 8.597656 -0.953125 8.914062 -1.253906 9.15625 -1.703125 L 9.265625 -1.9375 C 9.347656 -2.101562 9.421875 -2.242188 9.484375 -2.359375 C 9.554688 -2.484375 9.640625 -2.59375 9.734375 -2.6875 L 10.203125 -2.671875 L 9.703125 0.09375 C 9.003906 0.03125 8.4375 0 8 0 L 0.546875 0 L 0.53125 -0.421875 C 0.613281 -0.453125 0.78125 -0.503906 1.03125 -0.578125 C 1.332031 -0.648438 1.566406 -0.722656 1.734375 -0.796875 C 1.910156 -0.878906 2.054688 -1.003906 2.171875 -1.171875 C 2.285156 -1.335938 2.34375 -1.570312 2.34375 -1.875 Z M 2.34375 -8.078125 "/></g></g></g><g fill="#f9f6f2" fill-opacity="1"><g transform="translate(294.717297, 228.867993)"><g><path d="M 3.4375 -9.59375 C 2.957031 -9.59375 2.578125 -9.570312 2.296875 -9.53125 C 2.117188 -9.507812 1.953125 -9.4375 1.796875 -9.3125 C 1.648438 -9.195312 1.523438 -9.0625 1.421875 -8.90625 C 1.316406 -8.757812 1.1875 -8.554688 1.03125 -8.296875 C 0.875 -8.023438 0.738281 -7.816406 0.625 -7.671875 L 0.265625 -7.671875 L 0.46875 -10.21875 C 1.320312 -10.1875 2.429688 -10.171875 3.796875 -10.171875 L 7.859375 -10.171875 C 8.910156 -10.171875 9.765625 -10.191406 10.421875 -10.234375 L 10.671875 -7.671875 L 10.296875 -7.671875 C 10.210938 -7.765625 10.128906 -7.878906 10.046875 -8.015625 C 9.960938 -8.160156 9.910156 -8.253906 9.890625 -8.296875 C 9.679688 -8.671875 9.484375 -8.960938 9.296875 -9.171875 C 9.117188 -9.378906 8.910156 -9.5 8.671875 -9.53125 C 8.492188 -9.5625 8.3125 -9.578125 8.125 -9.578125 C 7.945312 -9.585938 7.722656 -9.59375 7.453125 -9.59375 L 6.265625 -9.59375 L 6.265625 -1.890625 C 6.265625 -1.484375 6.332031 -1.179688 6.46875 -0.984375 C 6.601562 -0.796875 6.785156 -0.664062 7.015625 -0.59375 C 7.242188 -0.53125 7.582031 -0.46875 8.03125 -0.40625 C 8.03125 -0.226562 8.023438 -0.09375 8.015625 0 L 2.84375 0 L 2.828125 -0.40625 C 2.910156 -0.4375 3.046875 -0.476562 3.234375 -0.53125 C 3.546875 -0.625 3.789062 -0.710938 3.96875 -0.796875 C 4.144531 -0.878906 4.289062 -1.003906 4.40625 -1.171875 C 4.519531 -1.347656 4.578125 -1.585938 4.578125 -1.890625 L 4.578125 -9.59375 Z M 3.4375 -9.59375 "/></g></g></g><g fill="#f9f6f2" fill-opacity="1"><g transform="translate(305.613078, 228.867993)"><g><path d="M 2.28125 -7.890625 C 2.28125 -8.203125 2.253906 -8.519531 2.203125 -8.84375 C 2.171875 -9 2.09375 -9.125 1.96875 -9.21875 C 1.84375 -9.320312 1.703125 -9.40625 1.546875 -9.46875 C 1.390625 -9.53125 1.1875 -9.59375 0.9375 -9.65625 C 0.75 -9.707031 0.613281 -9.75 0.53125 -9.78125 L 0.546875 -10.171875 L 5.171875 -10.171875 C 6.472656 -10.171875 7.617188 -10 8.609375 -9.65625 C 9.597656 -9.320312 10.378906 -8.78125 10.953125 -8.03125 C 11.523438 -7.289062 11.8125 -6.328125 11.8125 -5.140625 C 11.8125 -4.234375 11.59375 -3.390625 11.15625 -2.609375 C 10.726562 -1.828125 10.085938 -1.195312 9.234375 -0.71875 C 8.378906 -0.238281 7.359375 0 6.171875 0 L 0.546875 0 L 0.53125 -0.40625 L 0.953125 -0.515625 C 1.242188 -0.585938 1.476562 -0.65625 1.65625 -0.71875 C 1.832031 -0.789062 1.976562 -0.90625 2.09375 -1.0625 C 2.21875 -1.21875 2.28125 -1.4375 2.28125 -1.71875 Z M 3.96875 -2.125 C 3.96875 -1.664062 4.050781 -1.304688 4.21875 -1.046875 C 4.394531 -0.785156 4.695312 -0.644531 5.125 -0.625 C 5.414062 -0.613281 5.710938 -0.609375 6.015625 -0.609375 C 6.867188 -0.609375 7.59375 -0.804688 8.1875 -1.203125 C 8.78125 -1.597656 9.222656 -2.113281 9.515625 -2.75 C 9.804688 -3.382812 9.953125 -4.054688 9.953125 -4.765625 C 9.953125 -5.691406 9.785156 -6.515625 9.453125 -7.234375 C 9.117188 -7.960938 8.601562 -8.535156 7.90625 -8.953125 C 7.207031 -9.367188 6.332031 -9.578125 5.28125 -9.578125 L 3.96875 -9.578125 Z M 3.96875 -2.125 "/></g></g></g></svg>