<svg xmlns="http://www.w3.org/2000/svg" xmlns:xlink="http://www.w3.org/1999/xlink" width="500" zoomAndPan="magnify" viewBox="0 0 375 374.999991" height="500" preserveAspectRatio="xMidYMid meet" version="1.0"><defs><clipPath id="86204f9c7b"><path d="M 185 128.34375 L 190 128.34375 L 190 135 L 185 135 Z M 185 128.34375 " clip-rule="nonzero"/></clipPath><clipPath id="e66933838c"><path d="M 192 128.34375 L 197 128.34375 L 197 135 L 192 135 Z M 192 128.34375 " clip-rule="nonzero"/></clipPath><clipPath id="9388da5d8f"><path d="M 175 128.34375 L 181 128.34375 L 181 133 L 175 133 Z M 175 128.34375 " clip-rule="nonzero"/></clipPath><clipPath id="343dfd14a2"><path d="M 112.558594 202.058594 L 262.441406 202.058594 L 262.441406 204.617188 L 112.558594 204.617188 Z M 112.558594 202.058594 " clip-rule="nonzero"/></clipPath><clipPath id="1c45111619"><path d="M 112.558594 244.246094 L 262.441406 244.246094 L 262.441406 246.84375 L 112.558594 246.84375 Z M 112.558594 244.246094 " clip-rule="nonzero"/></clipPath></defs><rect x="-37.5" width="450" fill="#ffffff" y="-37.499999" height="449.999989" fill-opacity="1"/><rect x="-37.5" width="450" fill="#000000" y="-37.499999" height="449.999989" fill-opacity="1"/><path fill="#f9f6f2" d="M 183.894531 189.683594 C 182.933594 184.589844 179.367188 181.3125 174.445312 180.308594 C 180.097656 180.574219 183.71875 183.949219 183.894531 189.683594 Z M 213.898438 179.105469 C 214.261719 179.097656 214.632812 179.121094 214.992188 179.121094 C 216.449219 179.09375 217.636719 179.109375 219.015625 179.65625 C 220.441406 180.253906 221.292969 181.355469 222.015625 182.675781 C 221.199219 181.589844 220.15625 180.617188 218.792969 180.3125 C 217.503906 180.054688 216.390625 180.238281 215.113281 180.457031 C 209.636719 181.683594 205.980469 180.984375 201.972656 181.195312 C 196.601562 181.476562 192.605469 184.953125 192.324219 190.484375 C 192.121094 194.492188 192.878906 200.742188 195.054688 204.390625 L 185.128906 204.390625 C 185.285156 202.609375 185.710938 200.808594 185.71875 198.640625 C 185.59375 194.710938 184.609375 191.167969 184.621094 187.507812 C 184.4375 191.140625 185.234375 194.785156 185.21875 198.640625 C 185.140625 200.964844 184.632812 202.574219 184.382812 204.390625 L 182.535156 204.390625 C 184.042969 201.410156 184.34375 197.609375 184.085938 194.082031 C 183.953125 197.777344 183.632812 201.160156 181.671875 204.390625 L 179.679688 204.390625 C 181.847656 200.71875 182.613281 194.589844 182.40625 190.507812 C 182.128906 184.976562 178.128906 181.496094 172.761719 181.214844 C 168.75 181.007812 165.09375 181.707031 159.621094 180.476562 C 158.34375 180.257812 157.230469 180.074219 155.941406 180.332031 C 154.574219 180.640625 153.53125 181.613281 152.714844 182.695312 C 153.441406 181.375 154.292969 180.273438 155.71875 179.679688 C 157.417969 179.003906 159.121094 179.140625 160.898438 179.140625 C 161.675781 179.480469 162.792969 179.839844 163.75 179.738281 C 161.796875 179.605469 160.722656 178.347656 159.40625 177.273438 C 158.433594 176.480469 157.488281 175.691406 156.511719 175.007812 C 155.765625 174.496094 155.023438 174.03125 154.140625 173.8125 C 153.601562 173.707031 153.183594 173.734375 152.648438 173.835938 C 151.4375 174.085938 150.175781 175.015625 149.457031 176.039062 C 148.859375 176.953125 148.875 178.296875 147.621094 179.273438 C 146.65625 179.960938 145.597656 180.289062 144.460938 180.589844 C 144.046875 180.679688 142.210938 181.710938 141.9375 182.140625 C 142.171875 181.636719 143.90625 180.421875 144.351562 180.234375 C 145.339844 179.871094 146.34375 179.453125 147.089844 178.683594 C 147.996094 177.738281 147.761719 176.898438 148.265625 175.65625 C 147.851562 175.859375 147.4375 176.058594 147.015625 176.242188 C 145.027344 177.113281 142.867188 177.671875 140.832031 176.625 C 139.023438 175.695312 138.574219 174.269531 136.648438 173.199219 C 138.710938 174.09375 139.074219 175.445312 141.007812 176.242188 C 142.957031 177.050781 144.851562 176.363281 146.617188 175.421875 C 148.367188 174.492188 150.445312 173 152.3125 172.472656 C 154.28125 171.917969 155.75 172.5 157.460938 173.511719 C 159.488281 174.707031 161.511719 176.394531 163.550781 177.449219 C 164.378906 177.871094 165.15625 178.207031 166.097656 178.261719 C 170.269531 178.382812 172.191406 177.722656 176.652344 178.265625 C 177.636719 178.425781 178.835938 178.722656 179.632812 179.394531 C 180.027344 179.710938 180.539062 180.199219 180.734375 180.675781 C 180.679688 180.242188 180.09375 179.515625 179.796875 179.207031 C 177.78125 177.144531 173.488281 177.210938 170.863281 175.9375 C 169.210938 174.96875 166.824219 174.78125 164.285156 173.214844 C 162.839844 172.222656 162.21875 171.480469 161.277344 170.050781 C 160.695312 169.1875 160.386719 168.710938 159.402344 168.285156 C 157.792969 167.621094 155.640625 167.703125 153.910156 167.902344 C 152.535156 168.082031 151.148438 168.289062 149.765625 168.40625 C 148.394531 168.535156 147.078125 168.605469 145.730469 168.25 C 144.878906 168.011719 144.386719 167.730469 143.757812 167.117188 C 142.253906 165.519531 142.097656 164.988281 139.8125 164.214844 C 142.164062 164.882812 142.339844 165.382812 144.003906 166.851562 C 144.613281 167.363281 145.0625 167.578125 145.84375 167.746094 C 147.125 167.945312 148.390625 167.800781 149.664062 167.613281 C 151.632812 167.292969 153.582031 166.738281 155.632812 166.542969 C 154.265625 165.226562 153.761719 163.09375 153.546875 161.253906 C 153.308594 158.878906 153.597656 156.679688 153.34375 154.378906 C 153.175781 153.21875 152.914062 152.414062 152.269531 151.429688 C 151.417969 150.207031 150.476562 149.519531 149.1875 148.808594 C 151.734375 149.972656 153.371094 151.441406 154.011719 154.25 C 154.6875 157.203125 154.253906 161.320312 155.945312 164.125 C 156.28125 164.679688 156.59375 165.058594 157.152344 165.394531 C 158.171875 165.988281 159.355469 165.914062 160.472656 166.34375 C 159.261719 163.78125 159.28125 161.664062 160.910156 159.253906 C 161.28125 158.714844 161.367188 158.222656 161.371094 157.578125 C 161.355469 155.492188 159.96875 153.070312 159.398438 150.914062 C 159.179688 150.105469 158.875 149.132812 159.082031 148.296875 C 159.273438 147.660156 159.742188 146.8125 160.003906 146.101562 C 159.820312 146.722656 159.394531 147.753906 159.3125 148.339844 C 159.253906 149.078125 159.632812 150.074219 159.867188 150.769531 C 160.433594 152.191406 161.246094 153.558594 161.859375 155.007812 C 162.203125 155.855469 162.445312 156.582031 162.558594 157.492188 C 162.648438 158.445312 162.558594 159.15625 162.097656 160.003906 C 161.578125 160.953125 161.296875 161.738281 161.363281 162.828125 C 161.441406 163.683594 161.683594 164.277344 162.082031 165.027344 C 163.203125 167.058594 164.007812 169.742188 165.773438 170.769531 C 168.164062 171.976562 170.09375 171.898438 172.394531 172.757812 C 174.378906 173.421875 176.914062 173.363281 179.40625 174.132812 C 181.496094 174.820312 183.097656 176.011719 184.308594 177.765625 C 184.1875 178.675781 184.152344 179.722656 184.308594 180.5 C 184.28125 177.964844 186.171875 175.648438 185.808594 173.8125 C 185.636719 172.949219 184.695312 172.316406 183.964844 171.949219 C 181.535156 170.78125 178.570312 169.851562 176.410156 168.414062 C 175.832031 167.996094 175.132812 167.179688 174.652344 166.933594 C 173.707031 166.472656 172.78125 166.117188 171.773438 165.824219 C 170.75 165.585938 169.835938 165.3125 168.992188 164.671875 C 168.414062 164.234375 167.972656 163.617188 167.929688 162.878906 C 167.84375 161.421875 168.945312 160.148438 168.84375 159.320312 C 168.722656 158.3125 167.296875 157.011719 166.734375 155.335938 C 166.464844 154.457031 166.414062 153.796875 166.527344 152.882812 C 166.5625 154.5625 167.195312 155.582031 168.296875 156.789062 C 169.152344 157.722656 170.238281 158.679688 170.023438 160.082031 C 169.910156 160.738281 169.484375 162.066406 169.632812 162.636719 C 169.8125 163.257812 171.660156 163.4375 172.152344 163.492188 C 172.503906 163.523438 172.847656 163.570312 173.1875 163.625 C 172.863281 162.480469 172.695312 161.335938 172.542969 160.078125 C 172.363281 158.285156 172.308594 156.730469 172.570312 155.066406 C 173.164062 148.371094 170.84375 149.390625 170.132812 144.324219 C 169.996094 143.351562 170.070312 143.148438 169.363281 142.328125 C 167.492188 140.234375 163.546875 139.617188 163.867188 137.308594 C 163.867188 138.058594 164.285156 138.527344 164.90625 138.90625 C 166.355469 139.789062 168.6875 140.210938 170.234375 141.585938 C 170.566406 139.789062 171.320312 138.167969 172.261719 136.492188 C 172.753906 135.621094 173.253906 134.820312 173.847656 134.015625 L 174.570312 133.054688 C 173.925781 134.125 173.1875 135.609375 172.730469 136.71875 C 171.710938 139.269531 170.859375 142.078125 171.878906 144.761719 C 172.765625 147.105469 174.0625 147.792969 174.894531 149.703125 L 175.167969 149.402344 C 177.367188 147.265625 179.574219 146.554688 182.390625 145.558594 C 184.953125 144.644531 187.039062 143.910156 188.890625 141.804688 C 189.890625 140.542969 190.320312 139.421875 190.632812 137.847656 C 191.046875 135.570312 190.90625 133.613281 190.570312 131.332031 C 191.074219 133.617188 191.371094 135.585938 191.195312 137.929688 C 190.988281 139.660156 190.617188 140.90625 189.664062 142.375 C 187.832031 144.863281 185.734375 145.839844 183.007812 147.085938 C 180.710938 148.125 178.59375 148.988281 176.914062 150.949219 C 176.265625 151.796875 175.914062 152.542969 175.671875 153.480469 C 175.15625 155.414062 175.40625 157.753906 175.742188 159.605469 C 176 160.984375 176.3125 162.359375 177.015625 163.585938 C 177.445312 164.304688 177.804688 164.675781 178.527344 165.09375 C 179.640625 165.652344 181.226562 166.152344 182.796875 166.652344 C 183.15625 166.863281 183.625 167.132812 184.367188 167.835938 C 184.316406 167.648438 183.300781 166.464844 183.027344 166.210938 C 183.585938 163.71875 185.539062 161.710938 187.214844 159.886719 C 188.605469 158.378906 189.75 157.117188 190.523438 155.175781 C 190.894531 154.125 191.003906 153.3125 190.925781 152.203125 C 190.8125 150.757812 190.421875 149.683594 189.769531 148.394531 C 191.390625 150.546875 192.382812 152.773438 191.972656 155.519531 C 191.5625 157.890625 190.648438 159.492188 189.433594 161.523438 C 188.523438 163.03125 186.582031 165.769531 187.308594 167.621094 C 187.578125 168.246094 187.960938 168.707031 188.421875 169.195312 C 188.5625 169.308594 188.699219 169.429688 188.84375 169.554688 C 190.503906 171.121094 191.605469 173.636719 190.332031 175.75 C 189.800781 176.578125 189.53125 176.90625 189.433594 177.9375 C 189.632812 176.9375 189.945312 176.660156 190.582031 175.933594 C 191.097656 175.332031 191.339844 174.824219 191.453125 174.199219 C 192.011719 173.789062 192.5625 173.351562 193.109375 172.875 C 194.621094 171.5 195.636719 170.289062 196.21875 168.292969 C 196.875 165.785156 195.726562 163.511719 195.6875 161.007812 C 195.6875 159.828125 195.839844 158.976562 196.285156 157.890625 C 196.753906 156.695312 197.238281 155.765625 197.320312 154.753906 C 197.433594 152.695312 196.1875 149.984375 195.972656 147.691406 C 195.855469 146.171875 196.007812 145.113281 196.617188 143.710938 C 196.3125 145.132812 196.386719 146.132812 196.828125 147.507812 C 197.550781 149.691406 199 151.488281 199.632812 153.835938 L 199.941406 153.589844 C 201.324219 152.554688 202.738281 151.703125 204.167969 150.753906 C 206.988281 148.796875 207.816406 146.289062 207.890625 142.984375 C 207.925781 141.339844 207.699219 138.785156 208.105469 137.261719 C 208.246094 136.761719 208.402344 136.394531 208.730469 135.988281 C 208.199219 136.867188 208.183594 137.933594 208.261719 138.929688 C 208.382812 140.273438 208.617188 141.601562 208.746094 142.949219 C 208.898438 144.652344 208.886719 145.945312 208.457031 147.613281 C 207.859375 149.648438 206.964844 150.914062 205.386719 152.316406 C 203.574219 153.902344 200.363281 156.15625 199.472656 158.410156 C 199.144531 159.242188 199 159.765625 199.144531 160.765625 C 199.382812 162.386719 200.320312 164.171875 200.574219 166.324219 C 200.878906 166.058594 201.179688 165.757812 201.488281 165.40625 C 203.019531 163.570312 203.664062 161.070312 204.824219 159.121094 C 205.496094 158.015625 206.101562 157.320312 207.207031 156.628906 C 206.3125 157.496094 205.90625 158.261719 205.519531 159.429688 C 205.175781 160.546875 204.988281 161.667969 204.746094 162.8125 C 204.445312 164.242188 204.148438 165.332031 203.5 166.660156 C 202.648438 168.332031 201.730469 169.367188 200.246094 170.511719 C 200.03125 171.339844 199.75 172.089844 199.40625 172.804688 C 198.78125 173.136719 198.113281 173.355469 197.445312 173.617188 C 197.035156 173.78125 196.675781 173.9375 196.308594 174.1875 C 195.984375 174.417969 195.769531 174.632812 195.621094 175.007812 C 195.8125 174.667969 196.042969 174.488281 196.382812 174.308594 C 196.765625 174.125 197.132812 174.015625 197.542969 173.910156 C 199.039062 173.546875 201.054688 173.214844 202.421875 172.757812 C 204.722656 171.898438 206.65625 171.976562 209.046875 170.769531 C 210.808594 169.742188 211.609375 167.058594 212.734375 165.027344 C 213.132812 164.277344 213.375 163.683594 213.453125 162.828125 C 213.519531 161.738281 213.238281 160.953125 212.71875 160.003906 C 212.257812 159.15625 212.167969 158.445312 212.253906 157.492188 C 212.371094 156.582031 212.613281 155.855469 212.957031 155.007812 C 213.570312 153.558594 214.382812 152.191406 214.949219 150.769531 C 215.183594 150.074219 215.5625 149.078125 215.503906 148.339844 C 215.421875 147.753906 214.996094 146.722656 214.8125 146.101562 C 215.074219 146.8125 215.542969 147.660156 215.734375 148.296875 C 216.167969 149.878906 214.34375 153.75 213.851562 155.335938 C 213.625 156.097656 213.460938 156.773438 213.445312 157.578125 C 213.449219 158.222656 213.535156 158.714844 213.90625 159.253906 C 215.53125 161.664062 215.554688 163.78125 214.34375 166.34375 C 216.074219 165.671875 217.621094 166.199219 218.871094 164.125 C 220.5625 161.320312 220.128906 157.203125 220.804688 154.25 C 221.445312 151.441406 223.082031 149.972656 225.628906 148.808594 C 224.339844 149.519531 223.398438 150.207031 222.546875 151.429688 C 221.902344 152.414062 221.640625 153.21875 221.46875 154.378906 C 221.21875 156.679688 221.507812 158.878906 221.269531 161.253906 C 221.054688 163.09375 220.550781 165.226562 219.1875 166.542969 C 221.238281 166.738281 223.183594 167.292969 225.152344 167.613281 C 226.425781 167.800781 227.6875 167.945312 228.96875 167.746094 C 229.75 167.578125 230.203125 167.363281 230.816406 166.851562 C 232.476562 165.382812 232.652344 164.882812 235.003906 164.214844 C 232.71875 164.988281 232.558594 165.519531 231.054688 167.117188 C 230.429688 167.730469 229.9375 168.011719 229.082031 168.25 C 227.738281 168.605469 226.421875 168.535156 225.050781 168.40625 C 223.667969 168.289062 222.28125 168.082031 220.90625 167.902344 C 219.175781 167.703125 217.023438 167.621094 215.414062 168.285156 C 214.429688 168.710938 214.121094 169.1875 213.539062 170.050781 C 212.597656 171.480469 211.976562 172.222656 210.53125 173.214844 C 206.449219 175.734375 201.480469 176.289062 197.09375 177.992188 C 196.503906 178.203125 195.957031 178.515625 195.382812 178.945312 C 195.015625 179.222656 194.707031 179.496094 194.40625 179.84375 C 194.269531 179.992188 194.050781 180.246094 194 180.445312 C 194.058594 180.316406 194.363281 179.980469 194.46875 179.902344 C 194.808594 179.613281 195.132812 179.382812 195.519531 179.148438 C 199.023438 177.242188 204.753906 178.375 208.71875 178.261719 C 210.519531 178.183594 212.828125 176.5625 214.277344 175.558594 C 215.96875 174.386719 218.382812 172.558594 220.433594 172.289062 C 221.828125 172.109375 223.226562 172.636719 224.441406 173.269531 C 226.75 174.46875 229.34375 176.535156 231.921875 176.605469 C 233.449219 176.644531 234.722656 175.914062 235.800781 174.882812 C 236.558594 174.160156 237.203125 173.617188 238.167969 173.199219 C 236.246094 174.269531 235.792969 175.695312 233.984375 176.625 C 231.945312 177.671875 229.789062 177.113281 227.800781 176.242188 C 227.378906 176.058594 226.964844 175.859375 226.550781 175.65625 C 227.054688 176.898438 226.820312 177.738281 227.722656 178.683594 C 228.46875 179.453125 229.472656 179.871094 230.464844 180.234375 C 230.910156 180.421875 232.644531 181.636719 232.878906 182.140625 C 232.601562 181.710938 230.769531 180.679688 230.351562 180.589844 C 229.21875 180.289062 228.15625 179.960938 227.195312 179.273438 C 225.945312 178.296875 225.957031 176.953125 225.359375 176.039062 C 224.636719 175.015625 223.375 174.085938 222.171875 173.835938 C 221.636719 173.734375 221.214844 173.707031 220.675781 173.8125 C 219.050781 174.171875 216.8125 176.144531 215.503906 177.207031 C 214.234375 178.234375 213.089844 179.320312 211.320312 178.929688 C 211.332031 178.925781 211.917969 179.3125 213.898438 179.105469 Z M 186.792969 194.421875 C 185.75 190.792969 186.464844 188.324219 184.613281 184.65625 C 184.210938 183.921875 183.757812 183.179688 183.175781 182.574219 C 187.402344 186.21875 186.09375 190.332031 186.792969 194.421875 Z M 181.769531 180.707031 C 180.929688 177.425781 175.496094 176.273438 173.15625 175.589844 C 175.5625 175.769531 181.785156 176.929688 181.769531 180.707031 Z M 185.390625 180.644531 C 185.5625 178.042969 186.109375 177.277344 186.558594 175.074219 C 186.949219 172.871094 186.058594 171.601562 183.835938 170.546875 C 185.808594 171.074219 187.605469 172.355469 187.40625 174.609375 C 187.25 176.324219 185.878906 177.847656 185.390625 180.644531 " fill-opacity="1" fill-rule="evenodd"/><path fill="#f9f6f2" d="M 135.074219 183.316406 C 134.863281 181.890625 135.183594 180.378906 136.09375 179.117188 C 137.007812 177.855469 138.332031 177.078125 139.753906 176.832031 C 139.96875 178.257812 139.644531 179.769531 138.734375 181.03125 C 137.824219 182.292969 136.496094 183.070312 135.074219 183.316406 " fill-opacity="1" fill-rule="evenodd"/><path fill="#f9f6f2" d="M 147.167969 186.941406 C 146.230469 186.246094 145.550781 185.195312 145.351562 183.953125 C 145.148438 182.707031 145.464844 181.496094 146.136719 180.539062 C 147.078125 181.234375 147.753906 182.285156 147.957031 183.53125 C 148.15625 184.777344 147.839844 185.984375 147.167969 186.941406 " fill-opacity="1" fill-rule="evenodd"/><path fill="#f9f6f2" d="M 145.730469 178.757812 C 145.121094 179.308594 144.304688 179.628906 143.414062 179.59375 C 142.53125 179.554688 141.742188 179.167969 141.175781 178.566406 C 141.789062 178.015625 142.605469 177.695312 143.492188 177.730469 C 144.378906 177.769531 145.167969 178.15625 145.730469 178.757812 " fill-opacity="1" fill-rule="evenodd"/><path fill="#f9f6f2" d="M 140.390625 170.640625 C 139.902344 171.53125 139.746094 172.605469 140.039062 173.664062 C 140.332031 174.722656 141.019531 175.5625 141.898438 176.074219 C 142.386719 175.183594 142.542969 174.105469 142.25 173.046875 C 141.957031 171.988281 141.269531 171.148438 140.390625 170.640625 " fill-opacity="1" fill-rule="evenodd"/><path fill="#f9f6f2" d="M 137.949219 174.667969 C 137.4375 175.847656 136.480469 176.835938 135.195312 177.359375 C 133.910156 177.882812 132.535156 177.84375 131.347656 177.355469 C 131.859375 176.175781 132.816406 175.1875 134.101562 174.664062 C 135.386719 174.140625 136.761719 174.179688 137.949219 174.667969 " fill-opacity="1" fill-rule="evenodd"/><path fill="#f9f6f2" d="M 136.679688 172.695312 C 136.988281 171.621094 136.894531 170.429688 136.324219 169.363281 C 135.753906 168.304688 134.8125 167.570312 133.746094 167.234375 C 133.4375 168.308594 133.53125 169.5 134.101562 170.5625 C 134.671875 171.625 135.613281 172.359375 136.679688 172.695312 " fill-opacity="1" fill-rule="evenodd"/><path fill="#f9f6f2" d="M 141.65625 182.550781 C 140.871094 182.800781 140.183594 183.34375 139.769531 184.128906 C 139.351562 184.914062 139.289062 185.792969 139.519531 186.582031 C 140.304688 186.332031 140.992188 185.789062 141.410156 185.003906 C 141.824219 184.21875 141.886719 183.339844 141.65625 182.550781 " fill-opacity="1" fill-rule="evenodd"/><path fill="#f9f6f2" d="M 172.621094 142.402344 C 173.769531 142.648438 175.011719 142.464844 176.085938 141.785156 C 177.15625 141.105469 177.859375 140.0625 178.132812 138.914062 C 176.980469 138.667969 175.738281 138.855469 174.664062 139.535156 C 173.59375 140.210938 172.890625 141.257812 172.621094 142.402344 " fill-opacity="1" fill-rule="evenodd"/><path fill="#f9f6f2" d="M 171.097656 136.996094 C 171.515625 136.050781 171.578125 134.949219 171.191406 133.90625 C 170.800781 132.859375 170.035156 132.066406 169.097656 131.625 C 168.679688 132.570312 168.617188 133.675781 169.003906 134.71875 C 169.394531 135.765625 170.160156 136.554688 171.097656 136.996094 " fill-opacity="1" fill-rule="evenodd"/><path fill="#f9f6f2" d="M 164.878906 138.222656 C 164.335938 137.34375 164.117188 136.261719 164.359375 135.171875 C 164.597656 134.082031 165.25 133.191406 166.113281 132.625 C 166.660156 133.503906 166.875 134.585938 166.636719 135.675781 C 166.398438 136.765625 165.746094 137.65625 164.878906 138.222656 " fill-opacity="1" fill-rule="evenodd"/><path fill="#f9f6f2" d="M 186.328125 149.898438 C 186.023438 151.011719 186.136719 152.238281 186.738281 153.328125 C 187.339844 154.414062 188.320312 155.160156 189.425781 155.488281 C 189.730469 154.378906 189.617188 153.148438 189.015625 152.0625 C 188.414062 150.976562 187.429688 150.230469 186.328125 149.898438 " fill-opacity="1" fill-rule="evenodd"/><path fill="#f9f6f2" d="M 184.285156 154.296875 C 183.660156 155.269531 183.402344 156.472656 183.648438 157.691406 C 183.898438 158.910156 184.609375 159.914062 185.566406 160.558594 C 186.1875 159.589844 186.449219 158.386719 186.199219 157.167969 C 185.949219 155.949219 185.234375 154.945312 184.285156 154.296875 " fill-opacity="1" fill-rule="evenodd"/><path fill="#f9f6f2" d="M 193.683594 146.464844 C 194.125 147.253906 194.273438 148.210938 194.019531 149.152344 C 193.769531 150.09375 193.160156 150.847656 192.386719 151.308594 C 191.941406 150.519531 191.796875 149.5625 192.046875 148.621094 C 192.300781 147.679688 192.90625 146.925781 193.683594 146.464844 " fill-opacity="1" fill-rule="evenodd"/><path fill="#f9f6f2" d="M 196.171875 154.019531 C 196.226562 155.171875 195.851562 156.34375 195.03125 157.277344 C 194.207031 158.207031 193.089844 158.722656 191.941406 158.804688 C 191.886719 157.652344 192.257812 156.476562 193.082031 155.546875 C 193.90625 154.617188 195.023438 154.101562 196.171875 154.019531 " fill-opacity="1" fill-rule="evenodd"/><path fill="#f9f6f2" d="M 188.304688 141.027344 C 186.90625 140.496094 185.710938 139.433594 185.039062 137.96875 C 184.363281 136.5 184.339844 134.902344 184.839844 133.492188 C 186.238281 134.027344 187.433594 135.085938 188.105469 136.554688 C 188.78125 138.019531 188.808594 139.617188 188.304688 141.027344 " fill-opacity="1" fill-rule="evenodd"/><path fill="#f9f6f2" d="M 192.25 138.933594 C 193.703125 139.277344 195.289062 139.074219 196.667969 138.242188 C 198.050781 137.40625 198.96875 136.097656 199.34375 134.652344 C 197.890625 134.304688 196.308594 134.507812 194.925781 135.34375 C 193.546875 136.175781 192.625 137.484375 192.25 138.933594 " fill-opacity="1" fill-rule="evenodd"/><path fill="#f9f6f2" d="M 160.605469 157.816406 C 159.445312 157.917969 158.246094 157.578125 157.277344 156.777344 C 156.308594 155.976562 155.75 154.863281 155.625 153.703125 C 156.785156 153.605469 157.984375 153.941406 158.953125 154.742188 C 159.921875 155.542969 160.480469 156.65625 160.605469 157.816406 " fill-opacity="1" fill-rule="evenodd"/><path fill="#f9f6f2" d="M 158.996094 151.699219 C 157.851562 151.90625 156.628906 151.6875 155.585938 150.984375 C 154.542969 150.28125 153.878906 149.222656 153.644531 148.082031 C 154.789062 147.871094 156.015625 148.09375 157.058594 148.796875 C 158.097656 149.5 158.761719 150.554688 158.996094 151.699219 " fill-opacity="1" fill-rule="evenodd"/><path fill="#f9f6f2" d="M 161.539062 152.890625 C 162.582031 152.375 163.4375 151.464844 163.855469 150.28125 C 164.273438 149.09375 164.175781 147.851562 163.6875 146.792969 C 162.644531 147.308594 161.789062 148.214844 161.371094 149.402344 C 160.953125 150.589844 161.050781 151.832031 161.539062 152.890625 " fill-opacity="1" fill-rule="evenodd"/><path fill="#f9f6f2" d="M 160.640625 146.464844 C 161.761719 146.160156 162.777344 145.4375 163.414062 144.355469 C 164.058594 143.273438 164.207031 142.035156 163.929688 140.902344 C 162.804688 141.203125 161.792969 141.929688 161.152344 143.011719 C 160.511719 144.09375 160.363281 145.332031 160.640625 146.464844 " fill-opacity="1" fill-rule="evenodd"/><path fill="#f9f6f2" d="M 158.390625 146.992188 C 157.136719 146.835938 155.9375 146.210938 155.085938 145.144531 C 154.234375 144.074219 153.886719 142.765625 154.011719 141.503906 C 155.265625 141.660156 156.464844 142.285156 157.316406 143.355469 C 158.171875 144.421875 158.519531 145.730469 158.390625 146.992188 " fill-opacity="1" fill-rule="evenodd"/><path fill="#f9f6f2" d="M 159.367188 143.53125 C 158.425781 142.5 157.867188 141.117188 157.917969 139.609375 C 157.964844 138.105469 158.609375 136.757812 159.617188 135.792969 C 160.554688 136.824219 161.113281 138.207031 161.066406 139.710938 C 161.015625 141.21875 160.375 142.5625 159.367188 143.53125 " fill-opacity="1" fill-rule="evenodd"/><path fill="#f9f6f2" d="M 153.921875 168.535156 C 153.820312 169.351562 153.414062 170.132812 152.722656 170.6875 C 152.027344 171.242188 151.179688 171.46875 150.359375 171.386719 C 150.460938 170.566406 150.867188 169.789062 151.558594 169.234375 C 152.253906 168.675781 153.101562 168.449219 153.921875 168.535156 " fill-opacity="1" fill-rule="evenodd"/><path fill="#f9f6f2" d="M 149.269531 169.132812 C 149.167969 169.949219 148.761719 170.730469 148.070312 171.285156 C 147.378906 171.839844 146.527344 172.066406 145.710938 171.984375 C 145.808594 171.167969 146.214844 170.386719 146.90625 169.832031 C 147.601562 169.273438 148.449219 169.050781 149.269531 169.132812 " fill-opacity="1" fill-rule="evenodd"/><path fill="#f9f6f2" d="M 152.316406 166.421875 C 152.21875 165.605469 151.8125 164.824219 151.121094 164.269531 C 150.425781 163.714844 149.574219 163.492188 148.757812 163.574219 C 148.859375 164.390625 149.265625 165.171875 149.957031 165.722656 C 150.648438 166.277344 151.5 166.503906 152.316406 166.421875 " fill-opacity="1" fill-rule="evenodd"/><path fill="#f9f6f2" d="M 146.226562 167.007812 C 146.824219 166.019531 147.058594 164.808594 146.777344 163.59375 C 146.492188 162.378906 145.753906 161.390625 144.785156 160.769531 C 144.183594 161.753906 143.953125 162.96875 144.234375 164.179688 C 144.515625 165.398438 145.253906 166.386719 146.226562 167.007812 " fill-opacity="1" fill-rule="evenodd"/><path fill="#f9f6f2" d="M 145.273438 168.742188 C 144.625 168.234375 143.789062 167.96875 142.90625 168.066406 C 142.023438 168.167969 141.261719 168.609375 140.742188 169.246094 C 141.390625 169.753906 142.230469 170.015625 143.113281 169.917969 C 143.992188 169.820312 144.753906 169.378906 145.273438 168.742188 " fill-opacity="1" fill-rule="evenodd"/><path fill="#f9f6f2" d="M 139.59375 155.878906 C 138.898438 157.109375 138.660156 158.601562 139.050781 160.078125 C 139.441406 161.554688 140.382812 162.734375 141.597656 163.460938 C 142.292969 162.230469 142.527344 160.734375 142.140625 159.257812 C 141.75 157.785156 140.808594 156.601562 139.59375 155.878906 " fill-opacity="1" fill-rule="evenodd"/><path fill="#f9f6f2" d="M 136.882812 166.871094 C 137.46875 166.167969 138.316406 165.679688 139.300781 165.578125 C 140.28125 165.472656 141.214844 165.769531 141.929688 166.34375 C 141.347656 167.046875 140.496094 167.535156 139.515625 167.636719 C 138.53125 167.738281 137.601562 167.441406 136.882812 166.871094 " fill-opacity="1" fill-rule="evenodd"/><path fill="#f9f6f2" d="M 135.226562 162.820312 C 135.632812 163.570312 136.324219 164.167969 137.203125 164.4375 C 138.085938 164.707031 138.988281 164.597656 139.746094 164.207031 C 139.339844 163.457031 138.648438 162.859375 137.769531 162.589844 C 136.890625 162.320312 135.980469 162.425781 135.226562 162.820312 " fill-opacity="1" fill-rule="evenodd"/><path fill="#f9f6f2" d="M 147.503906 159.441406 C 147.859375 160.429688 148.585938 161.285156 149.609375 161.78125 C 150.625 162.277344 151.746094 162.3125 152.742188 161.980469 C 152.386719 160.988281 151.660156 160.136719 150.640625 159.640625 C 149.621094 159.148438 148.496094 159.109375 147.503906 159.441406 " fill-opacity="1" fill-rule="evenodd"/><path fill="#f9f6f2" d="M 146.28125 153.671875 C 146.777344 154.902344 147.738281 155.941406 149.046875 156.515625 C 150.359375 157.085938 151.773438 157.082031 153.011719 156.613281 C 152.515625 155.382812 151.554688 154.335938 150.246094 153.765625 C 148.933594 153.195312 147.519531 153.199219 146.28125 153.671875 " fill-opacity="1" fill-rule="evenodd"/><path fill="#f9f6f2" d="M 151.058594 142.140625 C 151.96875 143.027344 152.546875 144.253906 152.582031 145.625 C 152.617188 146.996094 152.101562 148.253906 151.238281 149.183594 C 150.328125 148.300781 149.75 147.070312 149.714844 145.699219 C 149.679688 144.328125 150.195312 143.070312 151.058594 142.140625 " fill-opacity="1" fill-rule="evenodd"/><path fill="#f9f6f2" d="M 143.980469 150.207031 C 144.8125 149.492188 145.910156 149.085938 147.089844 149.164062 C 148.265625 149.238281 149.304688 149.777344 150.039062 150.589844 C 149.207031 151.308594 148.109375 151.710938 146.929688 151.632812 C 145.753906 151.558594 144.714844 151.019531 143.980469 150.207031 " fill-opacity="1" fill-rule="evenodd"/><path fill="#f9f6f2" d="M 156.675781 163.265625 C 156.347656 162.511719 156.300781 161.632812 156.613281 160.800781 C 156.929688 159.96875 157.542969 159.339844 158.289062 158.996094 C 158.621094 159.75 158.667969 160.628906 158.351562 161.460938 C 158.039062 162.289062 157.421875 162.917969 156.675781 163.265625 " fill-opacity="1" fill-rule="evenodd"/><path fill="#f9f6f2" d="M 154.074219 186.644531 C 154.859375 186.0625 155.425781 185.1875 155.59375 184.148438 C 155.761719 183.109375 155.496094 182.097656 154.933594 181.300781 C 154.152344 181.878906 153.585938 182.753906 153.417969 183.796875 C 153.25 184.835938 153.511719 185.847656 154.074219 186.644531 " fill-opacity="1" fill-rule="evenodd"/><path fill="#f9f6f2" d="M 157.226562 183.882812 C 156.941406 183.351562 156.855469 182.710938 157.039062 182.089844 C 157.21875 181.464844 157.632812 180.972656 158.15625 180.671875 C 158.4375 181.203125 158.523438 181.84375 158.34375 182.46875 C 158.160156 183.089844 157.75 183.585938 157.226562 183.882812 " fill-opacity="1" fill-rule="evenodd"/><path fill="#f9f6f2" d="M 149 181.101562 C 149.496094 180.429688 150.25 179.941406 151.144531 179.796875 C 152.035156 179.652344 152.902344 179.878906 153.585938 180.363281 C 153.085938 181.039062 152.335938 181.523438 151.445312 181.671875 C 150.550781 181.8125 149.683594 181.585938 149 181.101562 " fill-opacity="1" fill-rule="evenodd"/><path fill="#f9f6f2" d="M 152.699219 177.652344 C 153.339844 177.367188 154.082031 177.320312 154.789062 177.582031 C 155.496094 177.84375 156.03125 178.359375 156.332031 178.992188 C 155.695312 179.28125 154.949219 179.324219 154.242188 179.0625 C 153.535156 178.800781 153 178.28125 152.699219 177.652344 " fill-opacity="1" fill-rule="evenodd"/><path fill="#f9f6f2" d="M 150.511719 178.078125 C 150.203125 177.527344 150.101562 176.859375 150.28125 176.203125 C 150.457031 175.546875 150.878906 175.019531 151.425781 174.699219 C 151.734375 175.253906 151.835938 175.917969 151.65625 176.574219 C 151.480469 177.234375 151.054688 177.757812 150.511719 178.078125 " fill-opacity="1" fill-rule="evenodd"/><path fill="#f9f6f2" d="M 174.339844 167.617188 C 173.472656 167.171875 172.4375 167.050781 171.429688 167.359375 C 170.425781 167.671875 169.636719 168.355469 169.175781 169.214844 C 170.039062 169.660156 171.078125 169.78125 172.082031 169.46875 C 173.085938 169.160156 173.875 168.476562 174.339844 167.617188 " fill-opacity="1" fill-rule="evenodd"/><path fill="#f9f6f2" d="M 164.824219 159.515625 C 163.988281 159.785156 163.25 160.371094 162.804688 161.210938 C 162.363281 162.050781 162.296875 162.988281 162.546875 163.835938 C 163.382812 163.5625 164.121094 162.980469 164.5625 162.140625 C 165.007812 161.300781 165.074219 160.359375 164.824219 159.515625 " fill-opacity="1" fill-rule="evenodd"/><path fill="#f9f6f2" d="M 166.285156 164.484375 C 165.542969 165.035156 165.007812 165.859375 164.847656 166.84375 C 164.6875 167.824219 164.9375 168.777344 165.464844 169.53125 C 166.207031 168.984375 166.746094 168.15625 166.902344 167.175781 C 167.0625 166.195312 166.8125 165.238281 166.285156 164.484375 " fill-opacity="1" fill-rule="evenodd"/><path fill="#f9f6f2" d="M 162.949219 153.683594 C 163.058594 154.433594 163.453125 155.136719 164.101562 155.628906 C 164.753906 156.121094 165.539062 156.308594 166.285156 156.210938 C 166.175781 155.464844 165.78125 154.757812 165.132812 154.269531 C 164.480469 153.773438 163.695312 153.589844 162.949219 153.683594 " fill-opacity="1" fill-rule="evenodd"/><path fill="#f9f6f2" d="M 169.375 150.03125 C 168.59375 150.4375 167.964844 151.136719 167.667969 152.039062 C 167.371094 152.941406 167.464844 153.878906 167.851562 154.667969 C 168.632812 154.265625 169.261719 153.5625 169.558594 152.660156 C 169.855469 151.757812 169.765625 150.820312 169.375 150.03125 " fill-opacity="1" fill-rule="evenodd"/><path fill="#f9f6f2" d="M 170.765625 153.351562 C 170.125 153.683594 169.609375 154.257812 169.367188 155 C 169.121094 155.742188 169.199219 156.511719 169.515625 157.164062 C 170.15625 156.828125 170.671875 156.253906 170.917969 155.511719 C 171.160156 154.769531 171.085938 154 170.765625 153.351562 " fill-opacity="1" fill-rule="evenodd"/><path fill="#f9f6f2" d="M 164.503906 157.851562 C 165.191406 157.632812 165.964844 157.675781 166.660156 158.027344 C 167.355469 158.378906 167.847656 158.976562 168.078125 159.660156 C 167.390625 159.878906 166.617188 159.839844 165.921875 159.488281 C 165.226562 159.136719 164.738281 158.539062 164.503906 157.851562 " fill-opacity="1" fill-rule="evenodd"/><path fill="#f9f6f2" d="M 166.714844 147.816406 C 166.175781 148.300781 165.8125 148.984375 165.757812 149.761719 C 165.707031 150.542969 165.96875 151.269531 166.433594 151.820312 C 166.972656 151.339844 167.335938 150.65625 167.390625 149.878906 C 167.441406 149.097656 167.183594 148.367188 166.714844 147.816406 " fill-opacity="1" fill-rule="evenodd"/><path fill="#f9f6f2" d="M 169.933594 145.503906 C 169.699219 144.496094 169.085938 143.574219 168.148438 142.976562 C 167.210938 142.375 166.121094 142.207031 165.109375 142.417969 C 165.34375 143.425781 165.957031 144.347656 166.894531 144.945312 C 167.832031 145.546875 168.921875 145.714844 169.933594 145.503906 " fill-opacity="1" fill-rule="evenodd"/><path fill="#f9f6f2" d="M 168.742188 139.882812 C 168.175781 139.449219 167.773438 138.800781 167.667969 138.039062 C 167.558594 137.273438 167.765625 136.542969 168.1875 135.964844 C 168.753906 136.402344 169.152344 137.050781 169.261719 137.8125 C 169.367188 138.574219 169.164062 139.308594 168.742188 139.882812 " fill-opacity="1" fill-rule="evenodd"/><path fill="#f9f6f2" d="M 175.273438 147.667969 C 176.230469 147.367188 177.074219 146.703125 177.585938 145.75 C 178.097656 144.792969 178.179688 143.722656 177.902344 142.757812 C 176.945312 143.058594 176.097656 143.71875 175.585938 144.675781 C 175.074219 145.628906 174.992188 146.699219 175.273438 147.667969 " fill-opacity="1" fill-rule="evenodd"/><path fill="#f9f6f2" d="M 177.894531 169.835938 C 177.210938 169.484375 176.398438 169.390625 175.605469 169.632812 C 174.8125 169.878906 174.191406 170.417969 173.828125 171.09375 C 174.511719 171.445312 175.324219 171.539062 176.117188 171.296875 C 176.910156 171.050781 177.527344 170.511719 177.894531 169.835938 " fill-opacity="1" fill-rule="evenodd"/><path fill="#f9f6f2" d="M 158.171875 168.355469 C 158.089844 169.039062 157.75 169.691406 157.171875 170.15625 C 156.589844 170.621094 155.882812 170.808594 155.195312 170.742188 C 155.28125 170.058594 155.621094 169.40625 156.199219 168.941406 C 156.78125 168.476562 157.488281 168.289062 158.171875 168.355469 " fill-opacity="1" fill-rule="evenodd"/><path fill="#f9f6f2" d="M 161.585938 171.039062 C 161.175781 171.714844 160.507812 172.234375 159.683594 172.441406 C 158.859375 172.652344 158.023438 172.507812 157.34375 172.109375 C 157.753906 171.4375 158.421875 170.917969 159.246094 170.710938 C 160.074219 170.5 160.90625 170.640625 161.585938 171.039062 " fill-opacity="1" fill-rule="evenodd"/><g clip-path="url(#86204f9c7b)"><path fill="#f9f6f2" d="M 189.859375 134.25 C 188.628906 133.964844 187.507812 133.214844 186.773438 132.066406 C 186.039062 130.914062 185.835938 129.582031 186.09375 128.34375 C 187.320312 128.632812 188.445312 129.378906 189.175781 130.527344 C 189.910156 131.675781 190.113281 133.011719 189.859375 134.25 " fill-opacity="1" fill-rule="evenodd"/></g><g clip-path="url(#e66933838c)"><path fill="#f9f6f2" d="M 192.230469 134.796875 C 193.457031 134.507812 194.582031 133.761719 195.3125 132.613281 C 196.046875 131.464844 196.25 130.128906 195.992188 128.890625 C 194.765625 129.175781 193.640625 129.925781 192.910156 131.074219 C 192.175781 132.222656 191.972656 133.558594 192.230469 134.796875 " fill-opacity="1" fill-rule="evenodd"/></g><path fill="#f9f6f2" d="M 182.085938 144.808594 C 181.195312 143.914062 180.640625 142.679688 180.628906 141.316406 C 180.617188 139.957031 181.148438 138.714844 182.023438 137.804688 C 182.914062 138.699219 183.46875 139.929688 183.480469 141.292969 C 183.492188 142.660156 182.957031 143.898438 182.085938 144.808594 " fill-opacity="1" fill-rule="evenodd"/><path fill="#f9f6f2" d="M 195.609375 141.855469 C 194.429688 141.40625 193.078125 141.398438 191.832031 141.9375 C 190.582031 142.480469 189.667969 143.472656 189.191406 144.640625 C 190.371094 145.089844 191.71875 145.101562 192.964844 144.558594 C 194.214844 144.015625 195.128906 143.027344 195.609375 141.855469 " fill-opacity="1" fill-rule="evenodd"/><path fill="#f9f6f2" d="M 182.558594 150.847656 C 182.089844 151.835938 181.257812 152.648438 180.152344 153.058594 C 179.050781 153.46875 177.890625 153.402344 176.894531 152.957031 C 177.359375 151.972656 178.191406 151.15625 179.296875 150.746094 C 180.398438 150.335938 181.558594 150.40625 182.558594 150.847656 " fill-opacity="1" fill-rule="evenodd"/><path fill="#f9f6f2" d="M 181.3125 155.066406 C 181.308594 156.328125 180.824219 157.589844 179.867188 158.558594 C 178.910156 159.527344 177.65625 160.023438 176.394531 160.042969 C 176.402344 158.777344 176.882812 157.515625 177.839844 156.546875 C 178.800781 155.578125 180.050781 155.085938 181.3125 155.066406 " fill-opacity="1" fill-rule="evenodd"/><path fill="#f9f6f2" d="M 181.441406 159.808594 C 181.882812 160.632812 182.015625 161.628906 181.734375 162.601562 C 181.457031 163.574219 180.8125 164.34375 179.996094 164.804688 C 179.554688 163.976562 179.421875 162.988281 179.703125 162.011719 C 179.984375 161.039062 180.625 160.273438 181.441406 159.808594 " fill-opacity="1" fill-rule="evenodd"/><path fill="#f9f6f2" d="M 188.242188 148.023438 C 187.5625 148.65625 186.644531 149.035156 185.644531 149.011719 C 184.640625 148.988281 183.742188 148.566406 183.09375 147.898438 C 183.773438 147.265625 184.691406 146.886719 185.691406 146.910156 C 186.695312 146.933594 187.59375 147.359375 188.242188 148.023438 " fill-opacity="1" fill-rule="evenodd"/><g clip-path="url(#9388da5d8f)"><path fill="#f9f6f2" d="M 180.207031 128.894531 C 180.046875 129.941406 179.496094 130.929688 178.585938 131.617188 C 177.675781 132.304688 176.574219 132.5625 175.523438 132.429688 C 175.683594 131.382812 176.234375 130.394531 177.148438 129.707031 C 178.058594 129.019531 179.160156 128.761719 180.207031 128.894531 " fill-opacity="1" fill-rule="evenodd"/></g><path fill="#f9f6f2" d="M 180.53125 133.921875 C 180.082031 135.207031 179.148438 136.328125 177.832031 136.980469 C 176.515625 137.632812 175.058594 137.695312 173.765625 137.273438 C 174.214844 135.988281 175.148438 134.867188 176.464844 134.214844 C 177.785156 133.5625 179.238281 133.5 180.53125 133.921875 " fill-opacity="1" fill-rule="evenodd"/><path fill="#f9f6f2" d="M 172.644531 134.773438 C 173.207031 134.191406 173.550781 133.402344 173.546875 132.527344 C 173.542969 131.652344 173.191406 130.863281 172.625 130.289062 C 172.0625 130.867188 171.71875 131.664062 171.722656 132.535156 C 171.726562 133.410156 172.078125 134.199219 172.644531 134.773438 " fill-opacity="1" fill-rule="evenodd"/><path fill="#f9f6f2" d="M 192.410156 162.613281 C 192.621094 163.746094 192.414062 164.960938 191.726562 165.996094 C 191.039062 167.03125 190.003906 167.695312 188.878906 167.9375 C 188.664062 166.804688 188.875 165.589844 189.558594 164.554688 C 190.246094 163.519531 191.28125 162.851562 192.410156 162.613281 " fill-opacity="1" fill-rule="evenodd"/><path fill="#f9f6f2" d="M 207.164062 136.535156 C 206.066406 136.144531 205.113281 135.339844 204.5625 134.210938 C 204.007812 133.082031 203.960938 131.835938 204.324219 130.726562 C 205.421875 131.117188 206.371094 131.921875 206.925781 133.050781 C 207.476562 134.179688 207.527344 135.429688 207.164062 136.535156 " fill-opacity="1" fill-rule="evenodd"/><path fill="#f9f6f2" d="M 208.832031 139.328125 C 209.996094 139.304688 211.152344 138.84375 212.03125 137.945312 C 212.914062 137.046875 213.351562 135.882812 213.355469 134.714844 C 212.191406 134.738281 211.035156 135.199219 210.152344 136.097656 C 209.273438 136.996094 208.835938 138.160156 208.832031 139.328125 " fill-opacity="1" fill-rule="evenodd"/><path fill="#f9f6f2" d="M 206.898438 141.585938 C 205.808594 141.363281 204.800781 140.726562 204.132812 139.730469 C 203.460938 138.730469 203.25 137.558594 203.449219 136.460938 C 204.539062 136.6875 205.546875 137.324219 206.214844 138.320312 C 206.886719 139.316406 207.097656 140.492188 206.898438 141.585938 " fill-opacity="1" fill-rule="evenodd"/><path fill="#f9f6f2" d="M 206.316406 146.644531 C 205.199219 146.414062 204.164062 145.761719 203.476562 144.742188 C 202.789062 143.714844 202.570312 142.511719 202.777344 141.386719 C 203.898438 141.617188 204.929688 142.273438 205.617188 143.292969 C 206.304688 144.316406 206.523438 145.519531 206.316406 146.644531 " fill-opacity="1" fill-rule="evenodd"/><path fill="#f9f6f2" d="M 201.398438 151.703125 C 200.40625 150.847656 199.734375 149.617188 199.613281 148.203125 C 199.496094 146.792969 199.949219 145.464844 200.785156 144.453125 C 201.777344 145.308594 202.449219 146.542969 202.566406 147.953125 C 202.6875 149.363281 202.230469 150.691406 201.398438 151.703125 " fill-opacity="1" fill-rule="evenodd"/><path fill="#f9f6f2" d="M 197.464844 144.234375 C 198.566406 143.976562 199.574219 143.300781 200.234375 142.269531 C 200.890625 141.238281 201.074219 140.035156 200.84375 138.925781 C 199.738281 139.183594 198.730469 139.855469 198.074219 140.890625 C 197.414062 141.925781 197.230469 143.121094 197.464844 144.234375 " fill-opacity="1" fill-rule="evenodd"/><path fill="#f9f6f2" d="M 239.925781 183.316406 C 240.140625 181.890625 239.816406 180.378906 238.90625 179.117188 C 237.996094 177.855469 236.667969 177.078125 235.246094 176.832031 C 235.035156 178.257812 235.355469 179.769531 236.269531 181.03125 C 237.179688 182.292969 238.507812 183.070312 239.925781 183.316406 " fill-opacity="1" fill-rule="evenodd"/><path fill="#f9f6f2" d="M 227.832031 186.941406 C 228.773438 186.246094 229.453125 185.195312 229.652344 183.953125 C 229.851562 182.707031 229.539062 181.496094 228.863281 180.539062 C 227.925781 181.234375 227.246094 182.285156 227.046875 183.53125 C 226.84375 184.777344 227.160156 185.984375 227.832031 186.941406 " fill-opacity="1" fill-rule="evenodd"/><path fill="#f9f6f2" d="M 229.269531 178.757812 C 229.882812 179.308594 230.699219 179.628906 231.585938 179.59375 C 232.472656 179.554688 233.261719 179.167969 233.824219 178.566406 C 233.214844 178.015625 232.394531 177.695312 231.507812 177.730469 C 230.621094 177.769531 229.832031 178.15625 229.269531 178.757812 " fill-opacity="1" fill-rule="evenodd"/><path fill="#f9f6f2" d="M 234.609375 170.640625 C 235.101562 171.53125 235.257812 172.605469 234.964844 173.664062 C 234.671875 174.722656 233.980469 175.5625 233.105469 176.074219 C 232.613281 175.183594 232.457031 174.105469 232.75 173.046875 C 233.046875 171.988281 233.734375 171.148438 234.609375 170.640625 " fill-opacity="1" fill-rule="evenodd"/><path fill="#f9f6f2" d="M 237.050781 174.667969 C 237.5625 175.847656 238.519531 176.835938 239.808594 177.359375 C 241.09375 177.882812 242.464844 177.84375 243.65625 177.355469 C 243.144531 176.175781 242.1875 175.1875 240.902344 174.664062 C 239.617188 174.140625 238.242188 174.179688 237.050781 174.667969 " fill-opacity="1" fill-rule="evenodd"/><path fill="#f9f6f2" d="M 238.320312 172.695312 C 238.011719 171.621094 238.105469 170.429688 238.675781 169.363281 C 239.246094 168.304688 240.1875 167.570312 241.253906 167.234375 C 241.5625 168.308594 241.472656 169.5 240.898438 170.5625 C 240.328125 171.625 239.386719 172.359375 238.320312 172.695312 " fill-opacity="1" fill-rule="evenodd"/><path fill="#f9f6f2" d="M 233.34375 182.550781 C 234.128906 182.800781 234.820312 183.34375 235.234375 184.128906 C 235.648438 184.914062 235.714844 185.792969 235.480469 186.582031 C 234.699219 186.332031 234.007812 185.789062 233.59375 185.003906 C 233.175781 184.21875 233.113281 183.339844 233.34375 182.550781 " fill-opacity="1" fill-rule="evenodd"/><path fill="#f9f6f2" d="M 214.394531 157.816406 C 215.554688 157.917969 216.753906 157.578125 217.722656 156.777344 C 218.691406 155.976562 219.25 154.863281 219.375 153.703125 C 218.214844 153.605469 217.015625 153.941406 216.046875 154.742188 C 215.078125 155.542969 214.519531 156.65625 214.394531 157.816406 " fill-opacity="1" fill-rule="evenodd"/><path fill="#f9f6f2" d="M 216.003906 151.699219 C 217.148438 151.90625 218.375 151.6875 219.417969 150.984375 C 220.457031 150.28125 221.121094 149.222656 221.355469 148.082031 C 220.210938 147.871094 218.984375 148.09375 217.945312 148.796875 C 216.902344 149.5 216.238281 150.554688 216.003906 151.699219 " fill-opacity="1" fill-rule="evenodd"/><path fill="#f9f6f2" d="M 213.460938 152.890625 C 212.417969 152.375 211.566406 151.464844 211.148438 150.28125 C 210.730469 149.09375 210.824219 147.851562 211.316406 146.792969 C 212.359375 147.308594 213.210938 148.214844 213.628906 149.402344 C 214.046875 150.589844 213.953125 151.832031 213.460938 152.890625 " fill-opacity="1" fill-rule="evenodd"/><path fill="#f9f6f2" d="M 214.363281 146.464844 C 213.238281 146.160156 212.226562 145.4375 211.585938 144.355469 C 210.945312 143.273438 210.796875 142.035156 211.074219 140.902344 C 212.199219 141.203125 213.210938 141.929688 213.851562 143.011719 C 214.492188 144.09375 214.640625 145.332031 214.363281 146.464844 " fill-opacity="1" fill-rule="evenodd"/><path fill="#f9f6f2" d="M 216.609375 146.992188 C 217.867188 146.835938 219.0625 146.210938 219.917969 145.144531 C 220.769531 144.074219 221.117188 142.765625 220.992188 141.503906 C 219.734375 141.660156 218.535156 142.285156 217.683594 143.355469 C 216.832031 144.421875 216.484375 145.730469 216.609375 146.992188 " fill-opacity="1" fill-rule="evenodd"/><path fill="#f9f6f2" d="M 215.632812 143.53125 C 216.578125 142.5 217.132812 141.117188 217.085938 139.609375 C 217.035156 138.105469 216.390625 136.757812 215.386719 135.792969 C 214.445312 136.824219 213.886719 138.207031 213.9375 139.710938 C 213.984375 141.21875 214.628906 142.5625 215.632812 143.53125 " fill-opacity="1" fill-rule="evenodd"/><path fill="#f9f6f2" d="M 221.082031 168.535156 C 221.179688 169.351562 221.585938 170.132812 222.28125 170.6875 C 222.972656 171.242188 223.820312 171.46875 224.640625 171.386719 C 224.542969 170.566406 224.132812 169.789062 223.441406 169.234375 C 222.75 168.675781 221.898438 168.449219 221.082031 168.535156 " fill-opacity="1" fill-rule="evenodd"/><path fill="#f9f6f2" d="M 225.734375 169.132812 C 225.832031 169.949219 226.238281 170.730469 226.933594 171.285156 C 227.625 171.839844 228.476562 172.066406 229.292969 171.984375 C 229.191406 171.167969 228.785156 170.386719 228.09375 169.832031 C 227.398438 169.273438 226.550781 169.050781 225.734375 169.132812 " fill-opacity="1" fill-rule="evenodd"/><path fill="#f9f6f2" d="M 222.683594 166.421875 C 222.785156 165.605469 223.1875 164.824219 223.882812 164.269531 C 224.578125 163.714844 225.425781 163.492188 226.242188 163.574219 C 226.144531 164.390625 225.738281 165.171875 225.046875 165.722656 C 224.351562 166.277344 223.5 166.503906 222.683594 166.421875 " fill-opacity="1" fill-rule="evenodd"/><path fill="#f9f6f2" d="M 228.773438 167.007812 C 228.175781 166.019531 227.945312 164.808594 228.226562 163.59375 C 228.507812 162.378906 229.246094 161.390625 230.21875 160.769531 C 230.820312 161.753906 231.046875 162.96875 230.765625 164.179688 C 230.484375 165.398438 229.746094 166.386719 228.773438 167.007812 " fill-opacity="1" fill-rule="evenodd"/><path fill="#f9f6f2" d="M 229.726562 168.742188 C 230.375 168.234375 231.214844 167.96875 232.097656 168.066406 C 232.976562 168.167969 233.738281 168.609375 234.257812 169.246094 C 233.609375 169.753906 232.769531 170.015625 231.890625 169.917969 C 231.007812 169.820312 230.25 169.378906 229.726562 168.742188 " fill-opacity="1" fill-rule="evenodd"/><path fill="#f9f6f2" d="M 235.40625 155.878906 C 236.101562 157.109375 236.339844 158.601562 235.949219 160.078125 C 235.558594 161.554688 234.617188 162.734375 233.40625 163.460938 C 232.707031 162.230469 232.472656 160.734375 232.863281 159.257812 C 233.253906 157.785156 234.195312 156.601562 235.40625 155.878906 " fill-opacity="1" fill-rule="evenodd"/><path fill="#f9f6f2" d="M 238.117188 166.871094 C 237.535156 166.167969 236.683594 165.679688 235.703125 165.578125 C 234.71875 165.472656 233.789062 165.769531 233.070312 166.34375 C 233.652344 167.046875 234.503906 167.535156 235.488281 167.636719 C 236.46875 167.738281 237.398438 167.441406 238.117188 166.871094 " fill-opacity="1" fill-rule="evenodd"/><path fill="#f9f6f2" d="M 239.777344 162.820312 C 239.367188 163.570312 238.675781 164.167969 237.796875 164.4375 C 236.917969 164.707031 236.011719 164.597656 235.253906 164.207031 C 235.664062 163.457031 236.351562 162.859375 237.234375 162.589844 C 238.113281 162.320312 239.019531 162.425781 239.777344 162.820312 " fill-opacity="1" fill-rule="evenodd"/><path fill="#f9f6f2" d="M 227.5 159.441406 C 227.140625 160.429688 226.414062 161.285156 225.394531 161.78125 C 224.375 162.277344 223.253906 162.3125 222.257812 161.980469 C 222.617188 160.988281 223.34375 160.136719 224.363281 159.640625 C 225.382812 159.148438 226.503906 159.109375 227.5 159.441406 " fill-opacity="1" fill-rule="evenodd"/><path fill="#f9f6f2" d="M 228.71875 153.671875 C 228.222656 154.902344 227.265625 155.941406 225.953125 156.515625 C 224.644531 157.085938 223.226562 157.082031 221.992188 156.613281 C 222.488281 155.382812 223.445312 154.335938 224.757812 153.765625 C 226.066406 153.195312 227.480469 153.199219 228.71875 153.671875 " fill-opacity="1" fill-rule="evenodd"/><path fill="#f9f6f2" d="M 223.945312 142.140625 C 223.035156 143.027344 222.453125 144.253906 222.417969 145.625 C 222.382812 146.996094 222.898438 148.253906 223.765625 149.183594 C 224.675781 148.300781 225.253906 147.070312 225.289062 145.699219 C 225.324219 144.328125 224.808594 143.070312 223.945312 142.140625 " fill-opacity="1" fill-rule="evenodd"/><path fill="#f9f6f2" d="M 231.019531 150.207031 C 230.191406 149.492188 229.09375 149.085938 227.914062 149.164062 C 226.734375 149.238281 225.695312 149.777344 224.964844 150.589844 C 225.792969 151.308594 226.890625 151.710938 228.070312 151.632812 C 229.25 151.558594 230.289062 151.019531 231.019531 150.207031 " fill-opacity="1" fill-rule="evenodd"/><path fill="#f9f6f2" d="M 218.324219 163.265625 C 218.65625 162.511719 218.703125 161.632812 218.386719 160.800781 C 218.074219 159.96875 217.457031 159.339844 216.710938 158.996094 C 216.382812 159.75 216.335938 160.628906 216.648438 161.460938 C 216.960938 162.289062 217.578125 162.917969 218.324219 163.265625 " fill-opacity="1" fill-rule="evenodd"/><path fill="#f9f6f2" d="M 220.925781 186.644531 C 220.144531 186.0625 219.578125 185.1875 219.410156 184.148438 C 219.242188 183.109375 219.503906 182.097656 220.066406 181.300781 C 220.851562 181.878906 221.417969 182.753906 221.585938 183.796875 C 221.753906 184.835938 221.488281 185.847656 220.925781 186.644531 " fill-opacity="1" fill-rule="evenodd"/><path fill="#f9f6f2" d="M 217.777344 183.882812 C 218.0625 183.351562 218.144531 182.710938 217.964844 182.089844 C 217.785156 181.464844 217.371094 180.972656 216.847656 180.671875 C 216.5625 181.203125 216.480469 181.84375 216.660156 182.46875 C 216.839844 183.089844 217.25 183.585938 217.777344 183.882812 " fill-opacity="1" fill-rule="evenodd"/><path fill="#f9f6f2" d="M 226.003906 181.101562 C 225.503906 180.429688 224.753906 179.941406 223.859375 179.796875 C 222.96875 179.652344 222.101562 179.878906 221.414062 180.363281 C 221.914062 181.039062 222.664062 181.523438 223.558594 181.671875 C 224.453125 181.8125 225.316406 181.585938 226.003906 181.101562 " fill-opacity="1" fill-rule="evenodd"/><path fill="#f9f6f2" d="M 222.300781 177.652344 C 221.664062 177.367188 220.917969 177.320312 220.210938 177.582031 C 219.507812 177.84375 218.96875 178.359375 218.671875 178.992188 C 219.308594 179.28125 220.050781 179.324219 220.757812 179.0625 C 221.464844 178.800781 222 178.28125 222.300781 177.652344 " fill-opacity="1" fill-rule="evenodd"/><path fill="#f9f6f2" d="M 224.488281 178.078125 C 224.796875 177.527344 224.898438 176.859375 224.722656 176.203125 C 224.542969 175.546875 224.121094 175.019531 223.578125 174.699219 C 223.269531 175.253906 223.167969 175.917969 223.34375 176.574219 C 223.523438 177.234375 223.945312 177.757812 224.488281 178.078125 " fill-opacity="1" fill-rule="evenodd"/><path fill="#f9f6f2" d="M 210.175781 159.515625 C 211.015625 159.785156 211.753906 160.371094 212.195312 161.210938 C 212.636719 162.050781 212.707031 162.988281 212.457031 163.835938 C 211.617188 163.5625 210.882812 162.980469 210.4375 162.140625 C 209.992188 161.300781 209.925781 160.359375 210.175781 159.515625 " fill-opacity="1" fill-rule="evenodd"/><path fill="#f9f6f2" d="M 207.585938 162.742188 C 208.5 163.417969 209.160156 164.4375 209.355469 165.648438 C 209.550781 166.859375 209.246094 168.03125 208.589844 168.960938 C 207.679688 168.285156 207.019531 167.265625 206.824219 166.058594 C 206.628906 164.847656 206.933594 163.671875 207.585938 162.742188 " fill-opacity="1" fill-rule="evenodd"/><path fill="#f9f6f2" d="M 212.054688 153.683594 C 211.941406 154.433594 211.550781 155.136719 210.898438 155.628906 C 210.25 156.121094 209.464844 156.308594 208.714844 156.210938 C 208.828125 155.464844 209.222656 154.757812 209.871094 154.269531 C 210.519531 153.773438 211.304688 153.589844 212.054688 153.683594 " fill-opacity="1" fill-rule="evenodd"/><path fill="#f9f6f2" d="M 210.5 157.851562 C 209.808594 157.632812 209.039062 157.675781 208.34375 158.027344 C 207.644531 158.378906 207.15625 158.976562 206.921875 159.660156 C 207.613281 159.878906 208.382812 159.839844 209.078125 159.488281 C 209.773438 159.136719 210.265625 158.539062 210.5 157.851562 " fill-opacity="1" fill-rule="evenodd"/><path fill="#f9f6f2" d="M 216.828125 168.355469 C 216.914062 169.039062 217.25 169.691406 217.832031 170.15625 C 218.410156 170.621094 219.121094 170.808594 219.804688 170.742188 C 219.722656 170.058594 219.382812 169.40625 218.804688 168.941406 C 218.222656 168.476562 217.515625 168.289062 216.828125 168.355469 " fill-opacity="1" fill-rule="evenodd"/><path fill="#f9f6f2" d="M 213.414062 171.039062 C 213.828125 171.714844 214.496094 172.234375 215.320312 172.441406 C 216.144531 172.652344 216.976562 172.507812 217.660156 172.109375 C 217.246094 171.4375 216.582031 170.917969 215.753906 170.710938 C 214.929688 170.5 214.097656 170.640625 213.414062 171.039062 " fill-opacity="1" fill-rule="evenodd"/><path fill="#f9f6f2" d="M 200.421875 161.707031 C 201.320312 161.4375 202.113281 160.828125 202.601562 159.941406 C 203.089844 159.054688 203.179688 158.054688 202.929688 157.152344 C 202.03125 157.421875 201.234375 158.03125 200.746094 158.917969 C 200.257812 159.804688 200.171875 160.800781 200.421875 161.707031 " fill-opacity="1" fill-rule="evenodd"/><path fill="#f9f6f2" d="M 203.660156 154.65625 C 204.398438 155.234375 205.355469 155.53125 206.359375 155.417969 C 207.363281 155.304688 208.226562 154.796875 208.820312 154.066406 C 208.078125 153.492188 207.121094 153.195312 206.117188 153.308594 C 205.113281 153.425781 204.25 153.929688 203.660156 154.65625 " fill-opacity="1" fill-rule="evenodd"/><path fill="#f9f6f2" d="M 202.058594 170.855469 C 202.96875 170.992188 203.929688 170.789062 204.738281 170.207031 C 205.542969 169.621094 206.039062 168.773438 206.199219 167.863281 C 205.289062 167.726562 204.324219 167.929688 203.519531 168.515625 C 202.714844 169.097656 202.214844 169.949219 202.058594 170.855469 " fill-opacity="1" fill-rule="evenodd"/><g clip-path="url(#343dfd14a2)"><path fill="#f9f6f2" d="M 187.5 202.199219 C 228.890625 202.199219 262.441406 202.738281 262.441406 203.402344 C 262.441406 204.070312 228.890625 204.609375 187.5 204.609375 C 146.113281 204.609375 112.558594 204.070312 112.558594 203.402344 C 112.558594 202.738281 146.113281 202.199219 187.5 202.199219 " fill-opacity="1" fill-rule="evenodd"/></g><g clip-path="url(#1c45111619)"><path fill="#f9f6f2" d="M 187.5 244.445312 C 228.890625 244.445312 262.441406 244.984375 262.441406 245.652344 C 262.441406 246.316406 228.890625 246.855469 187.5 246.855469 C 146.113281 246.855469 112.558594 246.316406 112.558594 245.652344 C 112.558594 244.984375 146.113281 244.445312 187.5 244.445312 " fill-opacity="1" fill-rule="evenodd"/></g></svg>